<?xml version="1.0" encoding="utf-8"?>
<svg version="1.1" id="Layer_1" xmlns="http://www.w3.org/2000/svg" xmlns:xlink="http://www.w3.org/1999/xlink" x="0px" y="0px"
	 viewBox="0 0 1625.801 1793.459" enable-background="new 0 0 1625.801 1793.459" xml:space="preserve">
<g id="Red_Heart">
	<g id="Red_Heart_1_">
	</g>
	<g id="Red_Heart_4">
		<g id="Man_Head_Silhouette">
		</g>
	</g>
	<g id="Man_Head_Silhouette_1_">
		<g>
			<path id="path19449_1_" d="M1025.403,1696.73l-781.666,0c32.843-154.35,72.15-408.273,55.23-470.509
				c-27.867-105.553-117.921-185.216-151.761-269.858C-24.949,526.184,185.408,151.675,661.189,101.98
				c420.114-43.881,653.793,194.675,686.636,441.132c3.481,26.388,0,52.776-12.442,80.161
				c57.715,90.119,190.57,223.055,202.01,286.786c6.968,38.337-38.311,51.78-60.206,65.224c-20.899,6.971-43.785,1.99-57.715,18.92
				c-9.951,12.448,3.481,33.359,6.47,48.794c0.498,25.392,30.346,37.84,27.363,61.24c-2.989,19.916-19.903,27.883-35.328,40.33
				c-16.421,12.944,41.798,37.839,22.892,60.743c-19.404,22.404-47.77,48.295-37.813,80.16
				c14.429,49.291,42.296,100.573,19.405,138.911c-22.892,37.84-54.732,60.244-103.991,70.2c-60.671,0-121.653,0.931-182.7,1.328
				c-33.999,0.221-64.926,19.568-80.147,49.97C1031.308,1594.439,1021.479,1644.753,1025.403,1696.73z"/>
			<g>
				<path fill="#0FBD79" d="M721.941,797.571c2.245-3.097,4.478-6.672,5.403-10.432c0.217-0.881,0.385-1.786,0.524-2.705v-11.519
					c-0.615-4.742-1.903-9.621-3.691-14.344h-10.51c1.935,4.824,3.157,9.809,3.469,13.482c0.66,7.774-2.823,14.666-5.156,21.98
					c-4.549-4.839-5.523-11.47-12.726-13.123c-2.072-0.475-10.295-0.833-10.301,2.921c-0.003,2.643,12.012,12.073,13.982,14.975
					c3.171,4.67,4.975,9.613,7.411,14.676c0.47,0.977,0.93,1.974,1.385,2.984h9.479c-0.493-1.434-0.999-2.879-1.536-4.353
					C716.923,804.557,717.19,804.125,721.941,797.571z"/>
				<path fill="#3BB16D" d="M657.392,760.925c1.395-0.395,2.805-0.8,4.245-1.278c1.056-0.35,2.101-0.709,3.136-1.075h-7.382V760.925
					z"/>
				<path fill="#C933E5" d="M727.868,926.39c0.968-1.877,1.844-3.715,2.479-5.483c5.304-14.753,2.957-31.183,2.665-46.546h-5.144
					V926.39z"/>
				<path fill="#0F5347" d="M727.868,772.915v11.519C728.419,780.809,728.386,776.913,727.868,772.915z"/>
				<path fill="#3F177B" d="M635.409,361.981c-8.975,1.551-17.341,4.015-25.879,6.769c-4.414,1.424-20.587,3.394-20.108,10.457
					c16.105,2.624,31.724-8.212,47.269-10.763c6.917-1.135,13.853-1.152,20.7-0.248v-7.85
					C650.081,359.791,642.75,360.712,635.409,361.981z"/>
				<path fill="#2DF5F9" d="M445.962,933.765v-1.509h-2.843C444.042,932.786,444.99,933.289,445.962,933.765z"/>
				<path fill="#AB0F6D" d="M305.009,700.677h8.869c-4.476-4.677-7.936-10.164-8.869-16.106V700.677z"/>
				<path fill="#45CB69" d="M392.516,700.677H379.04C383.377,703.324,391.585,705.119,392.516,700.677z"/>
				<path fill="#C3D927" d="M694.028,539.789c-1.932-4.271-9.743-11.879-15.093-10.349c0.521,10.515,12.711,22.951,17.235,32.206
					c3.682,7.531,7.026,15.375,10.21,23.242h8.58c-2.375-5.656-4.564-11.354-6.972-17.01c-2.677-6.292-6.686-12.736-8.984-19.046
					c8.757-2.122,15.631-11.395,20.201-21.838h-11.022C704.731,532.23,700.133,536.648,694.028,539.789z"/>
				<path fill="#E1DB25" d="M323.706,753.98c-1.304,0.731-2.12,2.549-2.56,4.591h16.967
					C332.327,756.43,326.659,752.323,323.706,753.98z"/>
				<path fill="#C559CF" d="M370.021,754.649c1.466-6.467,2.436-20.002-7.025-14.23c-7.162,4.368-6.786,14.124-14.623,18.154h20.304
					C369.231,757.359,369.7,756.065,370.021,754.649z"/>
				<path fill="#0D7143" d="M446.643,784.447c-0.226-0.122-0.454-0.236-0.681-0.352v7.343
					C451.576,790.823,455.047,788.99,446.643,784.447z"/>
				<path fill="#CF796F" d="M407.124,830.639c0.413-2.689,4.852-11.559,4.627-12.793c-0.091-0.499-0.3-0.951-0.565-1.379h-28.639
					c5.729,2.726,11.798,4.393,17.727,4.602c-7.36,17.982-2.792,36.129,4.199,53.293h8.934c-2.834-7.761-5.021-15.57-6.339-22.863
					C405.791,844.436,406.035,837.718,407.124,830.639z"/>
				<path fill="#8B59D1" d="M725.441,672.909c-0.048-9.979,0.122-20.06,0.038-30.127h-7.036c0.233,13.809-0.478,27.662-0.485,40.135
					c-0.004,6.468-0.836,12.357-2.345,17.759h10.18C726.63,691.556,725.483,681.811,725.441,672.909z"/>
				<path fill="#192757" d="M657.392,751.628c-0.007,0.003-0.014,0.006-0.021,0.008c-5.533,2.084-10.515,3.92-15.287,6.936h15.308
					V751.628z"/>
				<path fill="#F145B5" d="M727.868,1086.894v10.358C728.112,1093.847,728.101,1090.388,727.868,1086.894z"/>
				<path fill="#7FC9EB" d="M718.443,642.782h7.036c-0.071-8.455-0.317-16.899-1.052-25.262c-0.387-4.406-1.361-8.174-2.449-12.4
					c-1.5-5.826-3.116-11.235-5.565-16.815c-0.499-1.136-0.973-2.278-1.452-3.418h-8.58c1.676,4.141,3.31,8.287,4.92,12.398
					C716.642,610.924,718.173,626.823,718.443,642.782z"/>
				<path fill="#ADF133" d="M642.083,758.572c-0.683,0.432-1.362,0.888-2.037,1.372c-4.175,2.993-8.632,7.605-0.951,8.354
					c3.399,0.331,7.799-3.743,10.734-4.936c2.526-1.028,5.019-1.715,7.563-2.436v-2.353H642.083z"/>
				<path fill="#6DBF55" d="M708.201,733.806c5.654-6.107,10.222-11.33,14.02-19.143c2.102-4.324,3.121-9.066,3.572-13.986h-10.18
					c-7.343,26.282-31.128,40.738-58.221,50.95v6.944h7.382c6.982-2.467,13.536-5.319,20.122-8.961
					c3.313-1.832,6.797-4.28,10.354-5.606c5.114-1.906,2.801-2.915,7.69-0.197c4.495,2.498,8.213,8.496,10.728,14.764h10.51
					C720.461,748.761,714.601,739.626,708.201,733.806z"/>
				<path fill="#A92121" d="M516.439,1044.001v3.361C516.847,1046.415,516.876,1045.303,516.439,1044.001z"/>
				<path fill="#352161" d="M635.342,298.814c2.266-0.382,11.686-0.69,11.964-3.356c0.002-0.015,0-0.029,0.002-0.044h-42.897
					C612.89,302.685,625.228,300.519,635.342,298.814z"/>
				<path fill="#FD7597" d="M476.15,1049.355c4.901,1.917,34.931,5.914,39.906-1.31h-42.912
					C474.102,1048.509,475.103,1048.946,476.15,1049.355z"/>
				<path fill="#05E783" d="M730.639,331.105c-0.841-1.857-1.78-3.675-2.771-5.472v27.675h5.736
					C735.118,345.92,733.691,337.85,730.639,331.105z"/>
				<path fill="#F77FAF" d="M727.868,1024.501c2.989-10.678,6.558-21.168,6.882-32.412c0.018-0.635,0.033-1.284,0.046-1.938h-6.928
					V1024.501z"/>
				<path fill="#F91303" d="M586.389,1015.095c-6.595,8.336-2.62,18.689-0.081,27.472c0.236,0.818,0.437,1.535,0.607,2.191v-29.268
					C586.744,1015.354,586.571,1015.219,586.389,1015.095z"/>
				<path fill="#C35157" d="M433.591,791.366c2.399,0.293,8.026,0.547,12.371,0.071v-7.343
					c-12.548-6.453-26.726-4.899-38.609-14.598c-3.872-3.161-6.951-6.932-9.765-10.924h-9.154
					C399.695,774.031,410.915,788.593,433.591,791.366z"/>
				<path fill="#AB91F9" d="M579.875,960.43c-6.143-6.483-7.397-18.004-6.286-28.174h-8.974
					c-0.469,12.299-0.383,23.583,6.648,34.963c4.668,7.557,9.731,11.129,15.653,12.38v-14.83
					C584.335,963.946,581.944,962.613,579.875,960.43z"/>
				<path fill="#09D345" d="M516.439,935.726v8.578c14.781-0.813,26.198-4.504,39.035-12.048h-22.052
					C527.841,933.96,522.168,935.095,516.439,935.726z"/>
				<path fill="#47C50F" d="M576.305,919.9c1.402-3.926,9.57-12.15,8.617-16.291c-1.771-7.696-7.822-0.989-10.675,1.73
					c-9.157,8.722-16.099,16.015-27.683,21.723c-4.308,2.123-8.696,3.836-13.142,5.193h22.052c3.028-1.779,6.127-3.75,9.38-5.972
					c-0.077,2.02-0.165,4.008-0.239,5.972h8.974C574.09,927.667,575.072,923.352,576.305,919.9z"/>
				<path fill="#79AD5F" d="M445.962,922.346v9.91h27.143c-2.561-0.625-5.114-1.312-7.655-2.055
					C458.787,928.254,452.025,925.823,445.962,922.346z"/>
				<path fill="#5D79F7" d="M432.381,910.651c-7.498-10.116-14.169-23.132-18.974-36.289h-8.934
					c2.562,6.291,5.447,12.45,8.193,18.42c7.145,15.53,15.605,30.933,30.454,39.475h2.843v-9.91
					C440.742,919.352,436.038,915.585,432.381,910.651z"/>
				<path fill="#B7B7C1" d="M348.625,866.306c-2.401-9.493,1.205-15.576,1.995-24.667c0.772-8.868-0.983-8.535-8.922-11.665
					c-7.437-2.931-14.061-7.644-19.61-13.508h-9.799c3.334,3.635,6.776,7.117,10.419,10.497c3.68,3.414,13.711,10.58,15.482,15.526
					c1.845,5.152-2.533,14.384-1.734,20.471c0.508,3.873,2.698,7.665,3.785,11.401h11.647
					C350.453,871.836,349.338,869.127,348.625,866.306z"/>
				<path fill="#01FD09" d="M473.105,932.256h-27.143v1.509c0.601,0.294,1.187,0.602,1.808,0.874
					c17.832,7.811,38.951,9.326,58.278,9.81c3.674,0.092,7.106,0.036,10.391-0.145v-8.578
					C502.133,937.3,487.487,935.763,473.105,932.256z"/>
				<path fill="#8959DB" d="M305.243,758.572h-0.234v1.078c0.037-0.174,0.065-0.351,0.104-0.524
					C305.155,758.945,305.202,758.755,305.243,758.572z"/>
				<path fill="#155B81" d="M395.864,891.877c-6.464-2.333-13.533-1.261-20.378-1.871v7.98
					C386.206,899.205,395.98,898.354,395.864,891.877z"/>
				<path fill="#97F5CD" d="M498.328,979.617c3.501-14.635-12.559,1.397-15.455,4.336c-2.079,2.11-4.312,4.192-6.662,6.198h13.932
					C493.617,986.966,497.531,982.95,498.328,979.617z"/>
				<path fill="#B55543" d="M348.761,891.292c2.625,1.69,15.22,5.384,26.725,6.693v-7.98c-2.074-0.185-4.128-0.518-6.137-1.154
					c-7.447-2.359-13.629-7.746-17.461-14.491H340.24c0.297,1.021,0.516,2.037,0.591,3.05c0.333,4.524-3.516,11.352-4.369,17.56
					c-0.878,6.386-2.646,12.44-3.367,18.798c-0.753,6.639-0.704,12.725,0.073,18.487h10.43
					C341.4,919.298,342.653,905.818,348.761,891.292z"/>
				<path fill="#D9DFDD" d="M392.354,698.013c-1.468-5.635-12.197-10.709-16.868-15.467v15.277c0.895,0.865,1.825,1.666,2.805,2.365
					c0.232,0.166,0.486,0.329,0.749,0.49h13.477C392.667,699.958,392.632,699.081,392.354,698.013z"/>
				<path fill="#6DC96F" d="M732.1,968.504c-0.941-2.359-2.524-4.798-4.231-7.289v28.935h6.928
					C734.936,983.085,734.678,974.973,732.1,968.504z"/>
				<path fill="#83FB53" d="M720.284,944.362c0.347-3.866,2.291-8.002,4.458-12.105h-8.722c-0.615,1.621-1.255,3.244-1.924,4.87
					c-4.109,9.985-8.53,20.35-11.557,30.656c-1.472,5.011-2.328,12.405,5.107,9.006c3.758-1.718,6.95-11.111,7.784-14.637
					c8.244,7.597,12.501,16.026,10.176,27.959c-0.002,0.014-0.007,0.027-0.009,0.041h2.272v-28.935
					C724.122,955.752,719.775,950.038,720.284,944.362z"/>
				<path fill="#EBAD35" d="M411.186,816.467c-2.397-3.864-11.232-4.989-14.671-6.148c-7.587-2.557-14.958-5.825-21.029-10.914
					v13.054c2.268,1.508,4.633,2.853,7.061,4.008H411.186z"/>
				<path fill="#BF91DF" d="M620.761,990.151h-11.845c6.329,18.462,24.063,33.771,43.1,36.602c1.832,0.272,3.617,0.501,5.375,0.703
					v-9.814c-8.172-1.664-15.964-4.557-22.167-9.134C629.126,1004.008,623.85,997.25,620.761,990.151z"/>
				<path fill="#837399" d="M610.857,967.038c-7.458-1.802-16.492,0.105-23.942-2.27v14.83c5.625,1.187,12.025,0.281,19.61-1.321
					c0.235,4.04,1.071,8.023,2.391,11.873h11.845c-0.425-0.976-0.81-1.959-1.149-2.943
					C616.738,978.843,620.546,969.378,610.857,967.038z"/>
				<path fill="#33C1F5" d="M369.998,793.809c-3.776-4.729-6.381-10.259-8.047-16.057c-2.33-8.11,3.584-12.304,6.725-19.181h-20.304
					c-0.515,0.265-1.066,0.506-1.656,0.718c-2.668,0.958-5.651,0.375-8.603-0.718h-16.967c-0.585,2.717-0.503,5.834,0.006,7.335
					c2.419,7.135,10.551,7.638,16.98,8.043c5.195,0.327,11.708-0.836,14.273,2.492c2.06,2.675,2.217,10.655,3.883,14.311
					c3.844,8.437,10.857,16.16,19.199,21.705v-13.054C373.506,797.746,371.664,795.895,369.998,793.809z"/>
				<path fill="#9329F1" d="M727.868,1024.501v-34.35h-2.272c-3.3,16.781-24.454,27.505-39.832,28.905
					c-8.7,0.792-18.798,0.536-28.373-1.414v9.814c23.153,2.669,40.344-0.633,62.49-8.449c-1.247,12.908-4.419,14.949-13.622,23.297
					c-2.431,2.205-4.972,4.062-7.577,5.741h23.993c0.715-3.315,1.481-6.497,1.883-9.085
					C725.321,1034.047,726.537,1029.256,727.868,1024.501z"/>
				<path fill="#2FBB67" d="M727.868,874.361h-2.088c0.957,20.079-2.524,38.841-9.76,57.895h8.722
					c1.042-1.974,2.133-3.94,3.126-5.866V874.361z"/>
				<path fill="#7F5D9F" d="M419.004,1016.942c10.11,0.058,18.1-0.226,26.959-1.731v-8.999c-0.24,0.049-0.478,0.111-0.718,0.156
					c-25.389,4.729-51.129,0.653-69.758-15.814v12.415c5.286,4.047,11.057,6.929,18.689,9.611c3.426,1.204,8.903,2.092,11.993,3.726
					c8.281,4.378,6.581,21.684,10.188,31.741h10.748C423.622,1037.972,422.243,1027.844,419.004,1016.942z"/>
				<path fill="#8B43D1" d="M558.447,1000.086c1.502-2.491,4.203-6.977,3.729-9.935h-10.944c-3.292,2.633-6.58,6.316-8.81,7.816
					c-5.246,3.528-10.757,5.394-16.931,6.72c-2.915,0.625-6.027,1.307-9.052,1.475v10.995c2.408,0.049,4.844-0.14,6.81-0.281
					c2.089,0.149,4.171,0.042,6.244-0.321c3.767-2.639,5.602-1.515,5.504,3.373c5.19,8.405,4.292,19.1,8.615,28.118h11.716
					c-2.344-2.625-4.469-5.892-5.519-9.004C544.665,1023.805,550.872,1012.648,558.447,1000.086z"/>
				<path fill="#C739B9" d="M352.965,483.25c0.7-4.936,1.812-9.653,3.319-14.152h-8.941c-3.915,13.734-4.065,27.597-3.405,43.643
					c0.2,4.86,0.875,9.578,1.773,14.252h9.067C351.411,512.728,350.931,497.594,352.965,483.25z"/>
				<path fill="#FB95CB" d="M460.465,1085.482c-5.754-2.366-10.452-5.136-14.503-8.508v11.857c2.903,1.392,5.89,2.706,8.854,4.297
					c16.065,8.62,32.932,10.547,51.03,8.359c3.037-0.367,6.707-1.269,10.593-2.255v-7.306
					C497.219,1094.584,477.266,1092.39,460.465,1085.482z"/>
				<path fill="#BF3B51" d="M380.106,434.464c7.361-6.282,16.041-19.079,25.336-16.062c5.391,1.75,19.081,12.176,19.129,1.753
					c0.004-0.868-1.981-5.761-3.327-8.952H392.95c-1.317,1.747-2.82,3.399-4.591,4.908c-4.372,3.725-8.718,7.192-12.873,10.76
					v11.844C376.965,437.26,378.497,435.838,380.106,434.464z"/>
				<path fill="#9D7FC7" d="M375.486,438.716v-11.844c-7.15,6.14-13.732,12.58-18.892,21.157c-4.313,7.169-7.264,14.103-9.251,21.07
					h8.941C360.163,457.513,366.672,447.387,375.486,438.716z"/>
				<path fill="#CB5B91" d="M630.78,1084.797c12.726,0.375,8.11-5.651-0.136-9.463c-9.763-4.513-19.788-8.256-27.156-16.52
					c-2.862-3.209-5.112-6.849-6.77-10.768h-9.25c0.015,0.945-0.16,1.798-0.552,2.737v17.658c2.486-1.656,4.83-3.441,6.867-5.505
					C601.104,1073.995,617.286,1084.4,630.78,1084.797z"/>
				<path fill="#5BC3D7" d="M709.31,434.98c2.941,9.181,6.704,16.499,7.469,26.483c0.186,2.424,0.377,4.983,0.547,7.636h8.516
					c-0.213-5.49-0.619-10.906-1.332-16.092c-0.476-3.467-1.669-6.815-2.635-10.168c-1.467-5.089-2.528-10.122-3.621-15.296
					c-1.364-6.454-2.24-6.417,1.214-10.232c2.61-2.881,4.685-1.569,6.148-5.912c0.02-0.06,0.034-0.132,0.052-0.195h-17.357
					c-0.509,1.791-0.888,3.558-0.93,5.246C707.24,422.084,707.577,429.567,709.31,434.98z"/>
				<path fill="#D77915" d="M586.915,1015.491v29.268c0.338,1.308,0.538,2.348,0.552,3.287h9.25c-0.69-1.632-1.289-3.308-1.769-5.03
					C592.826,1035.398,593.587,1020.801,586.915,1015.491z"/>
				<path fill="#5D27E1" d="M727.609,838.508c-1.894-7.83-3.887-14.74-6.398-22.041h-9.479
					c6.082,13.523,10.711,29.861,12.786,44.474c0.646,4.551,1.052,9.015,1.261,13.421h2.088v-34.779
					C727.782,839.223,727.698,838.873,727.609,838.508z"/>
				<path fill="#5FB313" d="M305.009,684.572c0-0.001,0-0.001,0-0.002c-0.419-2.67-0.39-5.708,0-8.939v-28.019
					c-4.078,8.987-7.929,20.457-9.36,30.16c-1.444,9.791-0.358,17.017,3.03,22.905h6.331V684.572z"/>
				<path fill="#4DA933" d="M432.093,1059.36c-2.101-3.789-3.687-7.548-4.989-11.314h-10.748c0.233,0.648,0.486,1.268,0.767,1.85
					c4.974,10.322,8.114,21.638,16.106,30.279c3.733,4.037,8.126,6.446,12.734,8.656v-11.857
					C440.465,1072.397,436.166,1066.706,432.093,1059.36z"/>
				<path fill="#DDD3AF" d="M397.589,758.572c-2.4-3.405-4.608-6.971-6.944-10.464c-2.758-4.122-6.325-8.402-8.224-13.024
					c-1.515-3.687-0.495-10.11-3.188-12.835c-0.991-1.003-2.278-1.587-3.747-1.888v21.409c4.697,5.366,8.827,11.142,12.949,16.801
					H397.589z"/>
				<path fill="#53B3D5" d="M528.332,237.519h24.236c-2.918-1.81-5.685-3.589-7.87-4.426c-9.718-3.722-19.201-5.512-28.259-5.474
					v8.173C520.458,235.971,524.457,236.566,528.332,237.519z"/>
				<path fill="#E71B5B" d="M727.868,839.582v34.779h5.144c-0.001-0.045-0.003-0.091-0.003-0.136
					C732.76,860.617,730.877,852.053,727.868,839.582z"/>
				<path fill="#8DCF6F" d="M532.381,238.648c5.394,1.709,11.288,4.078,16.304,6.61c4.523,2.284,7.244,5.575,12.076,7.019
					c-0.523,1.992-3.031,7.655-4.157,9.311c-2.535,3.73-0.021,2.31-5.147,4.123c-4.708,1.666-12.874-1.327-17.065,1.2
					c-8.001,4.824,6.861,7.229,12.035,7.07c6.721-0.206,8.475-3.162,10.228,3.917c0.797,3.216,0.594,7.069,1.093,10.417
					c0.222,1.487,0.188,4.064,0.085,7.099h9.901c-0.357-2.121-0.695-4.129-0.905-5.859c-1.448-11.874-3.676-22.378,2.32-33.696
					c4.111-7.76,10.053-13.724,16.995-18.339h-12.517c-2.507,2.512-5.061,4.708-7.643,5.179c-3.706,0.676-8.756-2.289-13.416-5.179
					h-24.236C529.698,237.855,531.052,238.227,532.381,238.648z"/>
				<path fill="#59A31D" d="M706.424,240.066c6.031,15.726,5.798,36.181-1.994,51.341c-6.766-6.027-13.933-11.33-21.331-16.533
					c-3.037-2.136-11.474-10.927-15.056-10.99c-8.047-0.14-2.291,10.025,1.796,13.354c5.27,4.291,12.387,6.771,17.971,10.8
					c3.232,2.332,6.061,4.784,8.631,7.375h16.054c0.722-3.254,2.858-6.418,4.414-10.353c5.151-13.023,4.902-33.968,0.816-47.045
					c-0.051-0.164-0.111-0.331-0.167-0.496h-12.23C705.715,238.338,706.085,239.18,706.424,240.066z"/>
				<path fill="#09CB85" d="M345.168,569.623c1.402-1.638,8.809-9.488,11.516-9.138c2.833,0.366,5.975,6.828,8.272,8.823
					c2.316,2.011,7.364,6.158,10.53,4.868v-6.681c-1.143-1.03-2.374-1.932-2.991-2.559c-7.373-7.493-10.763-16.738-14.318-26.491
					c-1.359-3.728-2.48-7.56-3.399-11.452h-9.067c1.141,5.938,2.649,11.802,4.091,17.771c2.093,8.661,1.255,7.402-5.399,12.617
					c-6.61,5.179-10.215,10.481-13.493,18.039c-1.472,3.393-2.714,6.437-3.663,9.468h9.897
					C338.932,579.208,341.61,573.782,345.168,569.623z"/>
				<path fill="#0977A5" d="M666.847,212.781c-0.012-0.009,0.055,0.006,0.271,0.07c15.494,5.412,30.876,9.096,38.211,24.669h12.23
					c-1.853-5.545-5.859-11.609-10.33-15.237c-8.444-6.846-20.23-9.39-28.305-15.811c-5.108-3.788-13.412-2.06-19.215-1.745
					c-0.774,0.042-1.546,0.08-2.317,0.119v6.542C660.382,211.394,663.533,211.832,666.847,212.781z"/>
				<path fill="#AD4BF5" d="M620.565,224.495c-2.587,4.255-4.626,8.517-6.307,13.024h10.099
					c6.163-14.209,17.349-26.171,33.034-26.132v-6.542c-7.373,0.366-14.627,0.719-21.434,3.988
					c-3.319,1.594-5.191,3.906-8.168,5.752c-3.665,2.272-4.556,2.138-9.36,2.555c-10.725,0.93-21.778,4.908-31.514,9.939v9.945
					C596.955,230.557,608.98,226.814,620.565,224.495z"/>
				<path fill="#F9BBE3" d="M586.915,237.022v-9.945c-1.634,0.844-3.236,1.715-4.787,2.609c-2.751,1.585-5.595,4.921-8.501,7.832
					h12.517C586.399,237.35,586.658,237.188,586.915,237.022z"/>
				<path fill="#75F173" d="M325.6,635.281c6.505-4.895,6.228-1.612,10.763,4.15c0.865,1.1,1.742,2.233,2.648,3.352h24.173
					c0.35-3.974,1.091-7.915,2.266-11.734c2.374-7.715,5.571-15.677,10.035-22.62v-15.041c-4.438,4.644-8.295,11.024-10.385,14.677
					c-5.695,9.953-8.698,20.961-11.525,31.995c-14.38-7.351-20.049-26.701-18.988-41.832c0.3-4.277,1.155-8.886,2.557-13.339h-9.897
					c-1.33,4.25-2.08,8.477-2.039,13.612c0.036,4.498,0.212,8.999,0.454,13.491c0.158,2.966,0.355,5.929,0.593,8.889
					c-1.869,1.055-3.723,2.136-5.561,3.244c-4.913,6.32-9.591,11.852-13.303,18.659h11.044
					C320.717,639.719,323.143,637.129,325.6,635.281z"/>
				<path fill="#813353" d="M547.317,1093.224c7.626-4.421,14.165-7.454,21.272-13.151c5.531-4.433,12.351-7.652,18.326-11.632
					v-17.658c-0.362,0.868-0.908,1.81-1.683,2.978c-0.712,1.074-7.499,7.814-8.786,7.989c-3.21,0.433-15.989-8.828-19.025-11.577
					c-0.704-0.637-1.407-1.358-2.094-2.127h-11.716c0.477,0.994,0.999,1.974,1.618,2.922c5.736,8.78,12.594,15.79,23.56,17.551
					c-13.952,12.955-32.771,20.699-52.351,23.407v7.306c9.623-2.441,20.572-5.396,26.532-2.014c2.828,1.604,5.893,5.687,8.615,8.724
					h12.374C558.896,1101.252,553.534,1096.822,547.317,1093.224z"/>
				<path fill="#DF0B37" d="M563.96,1105.94h-12.374c0.678,0.756,1.335,1.45,1.961,2.021c4.525,4.131,9.302,8.115,12.844,13.077
					c5.59,7.829,9.934,12.38,19.225,17.266c0.425,0.223,0.864,0.453,1.299,0.68v-11.888
					C578.663,1120.778,571.654,1113.063,563.96,1105.94z"/>
				<path fill="#F1C96B" d="M460.29,260.163c-6.95,10.405-11.401,22.419-11.192,35.037c0.001,0.07,0.009,0.143,0.011,0.214h8.229
					c-0.355-5.817,0.489-11.695,3.352-17.883c6.386-13.802,19.23-31.456,33.433-37.79c2.031-0.905,4.121-1.634,6.246-2.222h-17.578
					C474.336,242.932,466.739,250.507,460.29,260.163z"/>
				<path fill="#99B997" d="M603.635,1136.566c-6.314-2.351-11.742-5.658-16.72-9.469v11.888
					c11.258,5.892,25.775,13.067,38.033,15.196c9.822,1.706,21.753,2.422,32.443,1.192v-12.256
					C639.086,1147.799,621.199,1143.107,603.635,1136.566z"/>
				<path fill="#61A93F" d="M305.243,758.572c1.453-6.328,3.529-13.612,6.294-19.336c1.715-3.55,4.18-6.815,6.362-10.072
					c3.757-5.608,3.131-6.785,8.417-6.569c7.753,0.317,15.579,6.198,23.33,7.104c7.702,0.901,11.497-1.493,17.466,3.665
					c3.028,2.616,5.785,5.45,8.373,8.407v-21.409c-6.011-1.233-15.118,2.334-19.992,1.934c-8.964-0.735-19.356-6.351-27.246-10.712
					c-4.843-2.677-10.074-6.419-14.368-10.906h-8.869v7.589c3.229,2.859,7.209,5.458,11.903,8.039
					c-4.333,5.246-8.414,11.038-11.903,17.206v25.06H305.243z"/>
				<path fill="#8BF343" d="M609.257,257.962c-1.437,2.018-5.846,2.691-7.728,4.944c-6.626,7.927-4.681,25.74,2.554,32.23
					c0.108,0.096,0.219,0.185,0.328,0.278h42.897c0.688-7.166-14.129-2.049-15.887-1.94c-9.413,0.583-24.072-7.839-19.414-19.722
					c0.949-2.422,3.135-1.834,4.032-3.497c2.392-4.43,2.498-7.198,3.044-12.626c0.657-6.539,2.434-13.561,5.275-20.11h-10.099
					c-0.905,2.426-1.71,4.92-2.431,7.529C610.906,248.382,611.307,255.084,609.257,257.962z"/>
				<path fill="#AD53F7" d="M440.824,332.098c0.902-0.184,2.887-0.662,5.138-1.109v-7.307c-4.229,0.867-9.501,0.24-13.373,0.83
					c-7.639,1.166-13.867,4.077-18.963,10.193c-4.167,5.002-6.751,11.6-8.436,18.604h9.119
					C418.734,342.315,427.037,334.905,440.824,332.098z"/>
				<path fill="#6781B3" d="M516.439,235.792v-8.173c-12.144,0.052-23.515,3.415-33.647,9.9h17.578
					C505.585,236.076,511.027,235.552,516.439,235.792z"/>
				<path fill="#BD0F9B" d="M298.679,700.677c1.603,2.786,3.717,5.275,6.331,7.589v-7.589H298.679z"/>
				<path fill="#814527" d="M557.189,987.235c-1.812,0.015-3.885,1.259-5.957,2.916h10.944
					C561.898,988.417,560.532,987.208,557.189,987.235z"/>
				<path fill="#218381" d="M559.271,318.031c4.801,4.639,9.207-2.422,9.8-6.492c0.639-4.393-0.415-10.65-1.336-16.125h-9.901
					C557.552,303.757,556.749,315.593,559.271,318.031z"/>
				<path fill="#37DB6B" d="M690.21,1132.573c0.256-5.524,0.136-12.254-4.413-16.219c-3.135,3.732-3.827,8.673-6.298,12.762
					c-3.918,6.487-9.916,9.948-16.954,12.439c-1.721,0.609-3.439,1.124-5.153,1.562v12.256c3.177-0.365,6.25-0.895,9.118-1.631
					c2.982-0.765,5.658-1.791,8.399-3.246c4.425-2.35,7.578-8.238,11.419-10.133c0.448-0.221,4.877,1.305,6.311,0.837
					c3.626-1.184,6.743-2.886,10.072-4.743c5.897-3.291,11.428-7.134,15.597-12.61c4.228-5.552,6.848-11.584,8.294-17.907h-10.997
					C710.83,1117.467,701.303,1124.432,690.21,1132.573z"/>
				<path fill="#F787F9" d="M452.652,374.263c5.257,1.871,5.087-4.128,5.387-7.314c0.465-4.935,0.851-9.322,1.534-13.64h-9.076
					c-0.081,1.534-0.113,3.103-0.114,4.769C450.381,361.832,448.219,372.686,452.652,374.263z"/>
				<path fill="#BFCBD7" d="M727.868,1086.894c-0.126-1.891-0.313-3.79-0.552-5.695c-0.296-2.36-0.956-4.67-1.291-7.044
					c-0.368-2.61,0.289-4.167-0.684-6.928c-0.394-1.117-3.846-3.404-4.024-4.37c-0.752-4.092,0.239-9.616,1.359-14.812h-23.993
					c-6.549,4.221-13.514,7.281-20.238,11.662c-7.881,5.135-8.518,11.925,2.35,8.411c12.356-3.995,21.29-11.454,32.177-18.592
					c0.837,15.381,7.429,29.897,5.47,45.431c-0.519,4.111-1.489,7.728-2.837,10.982h10.997c0.65-2.842,1.056-5.744,1.267-8.688
					V1086.894z"/>
				<path fill="#3307ED" d="M690.975,371.292c-8.107-4.105-16.502-7.428-25.401-9.651c-2.724-0.68-5.452-1.087-8.182-1.294v7.85
					c4.583,0.605,9.126,1.618,13.596,2.999c10.916,3.373,39.2,12.667,40.586,26.153c0.423,4.112-1.901,9.073-3.261,13.856h17.357
					c0.954-3.251-0.403-10.267-1.357-13.449c-2.191-7.312-7.367-11.354-13.339-15.746c5.279-1.489,12.399-9.891,16.895-16.466
					v-12.234h-7.412c-0.899,2.201-2.09,4.482-3.628,6.871C709.519,371.531,704.594,378.188,690.975,371.292z"/>
				<path fill="#992D7F" d="M453.041,316.013c-0.422,4.97-3.343,6.903-7.079,7.669v7.307c4.088-0.813,9.068-1.525,10.129-0.185
					c0.726,0.916-3.949,11.575-4.533,14.296c-0.607,2.827-0.915,5.458-1.061,8.209h9.076c0.806-5.094,2.026-10.09,4.3-15.771
					c13.408,8.461,14.266-1.414,17.164-11.61c1.823-6.416,1.616-6.459,8.067-9.751c2.905-1.483,6.414-3.58,9.399-4.692
					c2.584-0.963,15.076-1.684,15.309-6.11c0.687-12.995-46.339,12.262-50.043,15.073c-3.019-8.692-5.929-16.801-6.432-25.033
					h-8.229C449.306,302.02,453.565,309.844,453.041,316.013z"/>
				<path fill="#E3DDF7" d="M731.13,360.273c1.172-2.201,1.979-4.546,2.475-6.964h-5.736v12.234
					C729.243,363.533,730.375,361.691,731.13,360.273z"/>
				<path fill="#3F83D9" d="M384.189,587.806c-2.936,0.457-5.932,2.682-8.703,5.581v15.041c1.406-2.187,2.935-4.275,4.607-6.219
					C382.975,598.857,401.176,585.161,384.189,587.806z"/>
				<path fill="#1BEB93" d="M502.385,1004.432c-3.133,2.476,4.487,10.188,7.224,11.481c1.88,0.888,4.34,1.193,6.83,1.244v-10.995
					c-0.399,0.022-0.797,0.037-1.193,0.04C513.052,1006.218,503.892,1003.241,502.385,1004.432z"/>
				<path fill="#AF89AB" d="M375.486,567.495v6.681c0.06-0.024,0.124-0.037,0.182-0.065
					C379.719,572.148,377.778,569.561,375.486,567.495z"/>
				<path fill="#0DA55B" d="M496.781,1040.629c-9.092-0.098-16.956-1.107-24.043-7.503c-5.928-5.351-12.071-15.922-6.876-22.782
					c4.388-5.794,14.471-11.352,20.082-16.445c1.067-0.968,2.586-2.269,4.199-3.748h-13.932c-8.762,7.48-19.24,13.824-30.25,16.06
					v8.999c3.068-0.521,6.239-1.187,9.639-2.038c-1.09,15.493,3.442,28.052,17.543,34.873h42.912
					c0.15-0.218,0.279-0.445,0.382-0.684v-3.361c-0.01-0.031-0.017-0.06-0.028-0.091
					C514.694,1039.013,500.211,1040.665,496.781,1040.629z"/>
				<path fill="#E3DBFD" d="M374.687,681.663c-8.969-10.963-12.713-25.123-11.503-38.881h-24.173c1.701,2.1,3.51,4.146,5.57,5.802
					c1.656,1.332,7.778,3.093,8.555,4.137c1.834,2.463,2.56,14.447,4.153,18.369c1.922,4.731,4.179,7.479,6.915,11.486
					c3.314,4.854,6.813,10.928,11.28,15.246v-15.277C375.196,682.25,374.927,681.956,374.687,681.663z"/>
				<path fill="#735769" d="M667.119,212.85c-0.092-0.027-0.18-0.043-0.271-0.07C666.91,212.829,669.299,213.611,667.119,212.85z"/>
				<path fill="#959163" d="M362.788,990.151c0.452,0.571,0.896,1.146,1.367,1.705c3.87,4.586,7.472,8.158,11.33,11.112v-12.415
					c-0.149-0.132-0.297-0.268-0.446-0.402H362.788z"/>
				<path fill="#CFB72B" d="M720.457,353.309h7.412v-27.675c-2.658-4.821-5.716-9.473-8.448-14.205
					c-1.903-3.295-5.599-7.549-6.74-11.089c-0.557-1.73-0.536-3.338-0.184-4.925h-16.054c5.367,5.41,9.593,11.431,13.908,18.266
					C719.244,327.77,726.403,338.748,720.457,353.309z"/>
				<path fill="#19F539" d="M708.184,526.993h11.022c3.966-9.063,6.197-19.006,6.409-25.926c0.313-10.208,0.645-21.235,0.228-31.969
					h-8.516C718.521,487.735,718.636,511.141,708.184,526.993z"/>
				<path fill="#B7CF41" d="M305.009,733.512c-4.444,7.857-7.918,16.326-9.727,25.06h9.727V733.512z"/>
				<path fill="#C5776B" d="M305.009,759.65v-1.078h-9.727c-1.359,6.564-1.782,13.277-0.951,19.994
					c1.368,11.062,4.53,20.497,10.679,29.17v-24.608C303.46,775.269,303.378,767.242,305.009,759.65z"/>
				<path fill="#332943" d="M392.95,411.203h28.294c-0.443-1.051-0.818-1.918-1.029-2.394c-2.125-4.804-2.231-2.289-6.36-5.267
					c-5.724-4.13-3.989-6.537-3.608-14.735c0.294-6.349-0.263-12.782,0.344-19.112c0.584-6.093,1.782-11.58,3.717-16.386h-9.119
					c-2.034,8.452-2.753,17.497-3.307,25.066C401.023,390.162,399.786,402.132,392.95,411.203z"/>
				<path fill="#A517A1" d="M318.434,642.782h-11.044c-0.51,0.935-1.003,1.891-1.475,2.879c-0.302,0.635-0.604,1.287-0.905,1.951
					v28.019C306.32,664.786,311.76,651.735,318.434,642.782z"/>
				<path fill="#D19FCF" d="M364.39,977.991c-10.387-15.091-18.128-30.029-20.792-45.735h-10.43
					c1.717,12.751,7.002,23.914,15.083,35.951c4.935,7.352,9.07,15.042,14.537,21.943h12.252
					C371.153,986.652,367.575,982.619,364.39,977.991z"/>
				<path fill="#EF6D9B" d="M312.288,816.467h9.799c-8.626-9.115-14.648-21.015-17.078-33.339v24.608
					c1.17,1.65,2.436,3.276,3.832,4.877C309.978,813.918,311.127,815.201,312.288,816.467z"/>
				<path fill="#038DD5" d="M588.158,416.14c0.427-0.843,1.954-2.67,3.78-4.936h-5.022v7.961
					C587.29,418.082,587.693,417.056,588.158,416.14z"/>
				<path fill="#27009F" d="M566.071,331.091C564.718,333.668,564.359,330.454,566.071,331.091
					c-10.381-3.858-25.268,12.192-29.973,22.217h12.737C553.616,344.706,561.094,340.568,566.071,331.091z"/>
				<path fill="#CF1D93" d="M580.084,435.003c3.849-3.498,4.963-10.446,6.831-15.838v-7.961h-29.029
					c6.414,1.694,13.144,1.792,20.246,2.294C576.743,417.46,568.263,445.746,580.084,435.003z"/>
				<path fill="#2967EF" d="M566.071,331.091C564.359,330.454,564.718,333.668,566.071,331.091L566.071,331.091z"/>
				<path fill="#5523F3" d="M512.076,383.519c-6.565-1.916-10.617-4.821-8.33,3.997c1.704,6.57,6.836,8.767,12.692,9.79v-12.714
					C514.981,384.286,513.526,383.942,512.076,383.519z"/>
				<path fill="#270DDB" d="M598.944,394.445c-2.284-1.721-7.511,3.299-12.029,7.305v9.454h5.022
					C596.441,405.611,602.77,397.327,598.944,394.445z"/>
				<path fill="#271395" d="M534.082,386.751c-5.992-0.507-11.853-0.938-17.644-2.158v12.714c1.183,0.207,2.393,0.37,3.613,0.507
					c4.807,0.539,11.124-1.752,15.51-0.685c4.628,1.126,5.823,4.842,10.298,8.262c3.886,2.97,7.892,4.721,12.027,5.813h29.029
					v-9.454c-2.647,2.346-5.051,4.346-6.477,4.436c-6.91,0.441-22.834-7.742-28.183-11.971c-10.408-8.228-9.602-21.874-6.392-33.575
					c0.773-2.816,1.791-5.208,2.971-7.332h-12.737c-0.5,1.064-0.886,2.062-1.139,2.959
					C532.523,364.931,532.438,377.957,534.082,386.751z"/>
				<path fill="#B7250F" d="M547.027,613.662c8.254,13.755,24.185,20.029,39.888,20.791v-9.217
					c-6.565-0.948-13.368-3.087-19.074-6.311c-5.466-3.088-8.919-7.022-11.457-12.741c-4.15-9.352-1.686-14.689,2.201-21.296
					h-14.503C540.716,594.031,541.648,604.699,547.027,613.662z"/>
				<path fill="#C7CF31" d="M601.224,633.634c0.074,3.182,0.04,6.2,0.064,9.148h8.629c-0.003-2.809,0.222-5.624,1.007-8.487
					c2.341-8.53,6.873-13.303,13.15-19.026c2.861-2.608,9.716-7.372,5.324-10.773c-2.252-1.744-5.169,0.089-7.326,0.788
					c-5.673,1.838-10.389,6.509-13.738,11.232c-2.353,3.319-3.679,7.658-7.222,9.149c-2.729,1.148-8.306,0.185-11.201-0.074
					c-0.99-0.089-1.99-0.21-2.996-0.355v9.217C591.785,634.689,596.633,634.401,601.224,633.634z"/>
				<path fill="#59CDD3" d="M560.674,761.836c1.944,2.902,10.988,8.242,14.029,3.287c0.654-1.065-0.38-3.659-1.91-6.551h-13.525
					C559.591,759.74,560.018,760.856,560.674,761.836z"/>
				<path fill="#6F43DB" d="M655.136,408.768c0.606-1.508,1.41-2.902,2.255-4.271v-11.218c-4.103,2.289-9.686,8.297-10.336,9.249
					c-1.488,2.18-3.711,5.462-5.14,8.675h12.438C654.574,410.375,654.819,409.557,655.136,408.768z"/>
				<path fill="#858717" d="M660.955,681.65c13.629-4.153,20.796,2.405,28.155,11.867c2.124,2.731,5.027,5.473,7.693,7.161h6.708
					c0.552-1.537,0.394-4.229-0.841-8.468c-6.261-21.481-27.217-21.537-45.279-17.316v8.473
					C658.637,682.605,659.836,681.991,660.955,681.65z"/>
				<path fill="#47E9C5" d="M630.419,681.132c2.51,3.688,6.021,10.841,11.068,11.064c4.626,0.205,10.684-5.638,15.905-8.831v-8.473
					c-5.377,1.256-10.5,2.887-14.899,4.45c-6.134-15.574-16.198-21.538-32.206-21.098c0.399-5.289-0.366-10.365-0.371-15.462h-8.629
					c0.045,5.616,0.303,10.972,1.939,16.695c-5.72,1.01-11.206,2.923-16.312,5.558v9.278c1.815-1.261,3.691-2.374,5.618-3.311
					C609.159,662.921,620.365,666.36,630.419,681.132z"/>
				<path fill="#9F1F77" d="M511.988,510.967c-12.214-4.009-15.954-11.384-25.334-18.199c-15.162,19.354,8.262,26.781,29.785,29.759
					v-10.261C514.993,511.897,513.514,511.468,511.988,510.967z"/>
				<path fill="#3D7199" d="M703.511,700.677h-6.708C699.868,702.618,702.619,703.162,703.511,700.677z"/>
				<path fill="#775D8B" d="M645.744,421.215c-18.097,0-35.245,5.657-47.662,19.252c-4.315,4.725-7.893,10.031-11.167,15.572v13.059
					h2.019c5.934-11.303,12.835-22.323,22.819-30.127c11.807-9.23,30.443-11.643,45.638-11.289v-7.169
					c-2.381,0.211-4.446,0.449-5.762,0.505c1.515-3.014,1.851-6.522,2.725-9.814h-12.438
					C639.803,415.956,639.427,420.557,645.744,421.215z"/>
				<path fill="#D763AB" d="M586.915,674.313v-9.278c-14.274,7.367-25.545,20.439-30.475,35.642h9.77
					C570.578,690.323,577.992,680.513,586.915,674.313z"/>
				<path fill="#05AF13" d="M661.272,397.397c0.094-0.729,0.465-2.594,0.51-2.148c0.055-3.366-1.888-3.366-4.39-1.97v11.218
					C658.814,402.196,660.352,399.966,661.272,397.397z"/>
				<path fill="#374719" d="M588.934,469.098h-2.019v3.92C587.578,471.71,588.249,470.403,588.934,469.098z"/>
				<path fill="#491F0B" d="M586.915,456.039c-2.519,4.264-4.86,8.666-7.211,13.059h7.211V456.039z"/>
				<path fill="#0D000B" d="M661.782,395.249c-0.002,0.147,0.002,0.283-0.008,0.443
					C661.788,395.464,661.789,395.325,661.782,395.249z"/>
				<path fill="#D1CB5D" d="M557.976,500.113c-13.641,12.157-25.162,16.344-41.537,12.153v10.261
					c10.82,1.497,21.16,1.871,25.875,2.067c-0.575,0.769-1.068,1.572-1.5,2.398h10.408c1.179-5.511,3.39-10.629,7.74-15.35
					c8.634-9.369,16.859-16.358,22.73-28.131c1.712-3.433,3.435-6.961,5.224-10.494v-3.92h-7.211
					C573.659,480.393,567.522,491.605,557.976,500.113z"/>
				<path fill="#17DB4F" d="M487.222,725.389c-2.446-10.547-8.335-19.13-16.774-24.712h-20.774c2.942,0.566,5.847,1.35,8.647,2.707
					c7.711,3.736,12.263,9.929,15.815,17.521c1.922,4.106,3.371,12.571,7.282,15.368c5.943,4.252,11.608-3.932,16.865-7.028
					c5.229-3.079,11.675-5.802,18.155-7.568v-7.216C506.296,717.114,496.337,721.508,487.222,725.389z"/>
				<path fill="#A94D89" d="M459.713,695.644c-2.964-0.9-8.315-2.316-13.75-2.942v7.352c1.241,0.185,2.479,0.385,3.712,0.622h20.774
					C467.223,698.544,463.638,696.836,459.713,695.644z"/>
				<path fill="#E76B69" d="M554.71,570.804c-5.061,3.687-8.614,8.613-10.628,14.083h14.503c0.958-1.629,2.002-3.335,3.056-5.198
					c4.667-8.252,0.258-11.411-4.359-18.419c-4.425-6.718-7.735-14.652-7.36-22.773c0.185-4.01,0.517-7.843,1.301-11.504h-10.408
					C533.664,540.638,545.278,561.478,554.71,570.804z"/>
				<path fill="#574B05" d="M675.051,423.286c-2.776-3.71-11.337-3.335-17.659-2.774v7.169c1.177,0.027,2.339,0.067,3.47,0.125
					C664.208,427.982,680.847,431.034,675.051,423.286z"/>
				<path fill="#13252D" d="M661.774,395.691c-0.133,0.587-0.304,1.154-0.501,1.705C661.202,397.94,661.285,397.852,661.774,395.691
					z"/>
				<path fill="#E72BFB" d="M661.782,395.249c-0.044-0.446-0.416,1.419-0.51,2.148c0.198-0.552,0.369-1.118,0.501-1.705
					C661.784,395.531,661.779,395.396,661.782,395.249z"/>
				<path fill="#F3E335" d="M553.945,724.09c2.264,2.589,0.695,12.977,1.34,16.927c0.618,3.785,1.704,7.071,2.618,10.724
					c0.535,2.138,0.744,4.587,1.365,6.831h13.525c-2.282-4.313-5.669-9.292-6.221-10.871c-3.461-9.892-5.741-24.134-4.043-34.528
					c0.674-4.121,1.934-8.351,3.682-12.495h-9.77c-1.619,4.993-2.563,10.213-2.695,15.538c-7.063-1.615-13.454-4.236-20.831-4.167
					c-5.477,0.051-11.003,0.983-16.476,2.414v7.216c3.865-1.053,7.742-1.767,11.38-2.012
					C533.056,719.313,550.838,720.535,553.945,724.09z"/>
				<path fill="#498141" d="M429.948,696.222c5.107,2.463,10.579,3.023,16.014,3.833v-7.352
					C439.398,691.947,432.709,692.347,429.948,696.222z"/>
				<path fill="#EF514D" d="M375.486,526.249c-1.058,0.213-2.128,0.455-3.217,0.744h3.217V526.249z"/>
				<path fill="#AF73B3" d="M483.053,396.293c2.258,0.715-2.963,4.978-0.551,0.879c-2.371,3.886-4.138,8.758-5.41,14.032h10.595
					C489.065,405.159,489.354,398.288,483.053,396.293z"/>
				<path fill="#816BD9" d="M473.415,669.051c3.438,1.577,15.944,7.388,19.693,3.58c4.538-4.61-7.196-8.844-10.147-10.089
					c-11.047-4.665-21.208-11.444-29.87-19.759h-7.13v5.67c0.122,0.144,0.244,0.291,0.359,0.414
					C453.95,657.064,463.191,664.358,473.415,669.051z"/>
				<path fill="#2345C3" d="M441.879,642.782c1.526,2.144,2.954,4.332,4.083,5.67v-5.67H441.879z"/>
				<path fill="#7F13A7" d="M395.639,526.993c-6.093-1.888-12.748-2.234-20.153-0.744v0.744H395.639z"/>
				<path fill="#A981B1" d="M483.053,396.293c-0.188,0.285-0.37,0.582-0.551,0.879C480.09,401.271,485.311,397.008,483.053,396.293z
					"/>
				<path fill="#991F49" d="M372.268,526.993c-0.67,0.178-1.346,0.37-2.029,0.577c0.161,2.793,2.364,4.267,5.246,5.084v-5.661
					H372.268z"/>
				<path fill="#C1F3A1" d="M445.962,510.238v-12.996c-0.151,0.557-0.377,1.262-0.677,2.215c-2.054,6.521-10.373,12.22-13.78,18.318
					c-1.621,2.901-3.126,6.012-4.512,9.219h9.639C439.355,521.197,442.484,515.576,445.962,510.238z"/>
				<path fill="#C1C5A7" d="M424.308,577.221c0.204-16.358,4.682-33.964,12.324-50.229h-9.639
					c-2.636,6.097-4.816,12.556-6.367,18.696c-7.459-9.168-15.551-15.773-24.987-18.696h-20.153v5.661
					c4.568,1.296,10.846,0.94,13.436,1.542c3.876,0.902,8.54,2.528,11.866,4.87c2.156,1.518,3.959,3.78,5.876,5.585
					c2.58,2.428,10.513,7.357,11.485,10.434c0.885,2.799-1.151,7.818-1.462,10.593c-0.636,5.672-0.866,12.299-0.526,19.21h8.425
					C424.378,582.353,424.276,579.797,424.308,577.221z"/>
				<path fill="#B32559" d="M457.774,407.178c-3.75,0.018-7.678,1.615-11.354,4.025h10.273
					C457.405,410.03,457.837,408.72,457.774,407.178z"/>
				<path fill="#C799E7" d="M445.962,476.116v19.124c0.293,0.481,0.275,0.987,0,2.001v12.996
					c7.701-11.82,17.124-22.234,27.739-29.957c5.306-3.861,14.883-5.823,17.813-11.183h-21.003
					c-5.333,6.933-11.866,12.988-17.373,19.782C450.409,484.37,447.991,480.186,445.962,476.116z"/>
				<path fill="#3191D7" d="M445.962,635.182v7.6h7.13C450.583,640.374,448.202,637.837,445.962,635.182z"/>
				<path fill="#E9699F" d="M399.547,467.321c8.102-5.055,14.403-5.046,23.541-4.296c7.905,0.649,6.006,0.521,7.108,6.073h12.644
					c-4.007-10.415-5.007-20.867-1.462-35.037c1.081-4.32,2.381-8.012,4.584-11.439v-11.114c-5.402,3.663-10.212,9.04-13.036,13.687
					c-4.691,7.717-2.83,19.815-3.458,28.356c-8.9-0.255-15.966,0.167-24.543,2.426c-5.165,1.361-22.121,3.921-20.974,11.46
					c0.094,0.617,0.218,1.164,0.363,1.662h12.626C397.969,468.392,398.871,467.743,399.547,467.321z"/>
				<path fill="#993F6D" d="M482.502,397.172c0.181-0.297,0.363-0.594,0.551-0.879C482.836,396.622,482.655,396.913,482.502,397.172
					z"/>
				<path fill="#B1DFCD" d="M403.598,645.33c-2.622,3.006-11.356,19.725-5.444,22.087c6.666,2.662,16.224-19.478,21.2-23.022
					c0.531-0.378,1.392-0.951,2.441-1.612h-15.749C405.168,643.622,404.346,644.474,403.598,645.33z"/>
				<path fill="#43E777" d="M442.84,469.098h-12.644c0.115,0.58,0.263,1.222,0.458,1.934c1.026,3.738,3.641,7.052,5.484,10.4
					c1.841,3.342,3.491,6.715,5.937,9.673c2.194,2.656,3.424,3.375,3.887,4.135v-19.124
					C444.784,473.752,443.736,471.425,442.84,469.098z"/>
				<path fill="#B9675F" d="M474.642,444.804c0.274,3.445,2.09,7.353,2.111,10.636c0.029,4.373-1.827,7.586-4.736,11.66
					c-0.485,0.679-0.997,1.337-1.506,1.998h21.003c0.559-1.023,0.879-2.168,0.878-3.474c-0.005-8.49-8.484-17.371-9.344-26.26
					c-0.649-6.722,0.64-14.318,2.529-20.718c0.557-1.886,1.455-4.571,2.11-7.442h-10.595
					C474.369,422.497,473.911,435.622,474.642,444.804z"/>
				<path fill="#DB8709" d="M396.94,469.098h-12.626C386.284,475.895,392.702,472.007,396.94,469.098z"/>
				<path fill="#FD1FC5" d="M445.962,635.182c-11.94-14.149-19.843-31.592-21.376-50.294h-8.425
					c0.807,16.396,4.843,34.406,14.438,45.163c-8.375,1.075-18.089,6.558-24.552,12.731h15.749
					c4.214-2.656,11.598-6.798,14.093-6.049c1.852,0.555,4.001,3.254,5.991,6.049h4.083V635.182z"/>
				<path fill="#014DC3" d="M445.962,422.622c0.832-1.294,1.781-2.553,2.912-3.789c2.351-2.572,6.014-4.648,7.82-7.63H446.42
					c-0.153,0.101-0.306,0.202-0.458,0.305V422.622z"/>
				<path fill="#D191BF" d="M657.392,478.268c4.303-2.77,7.718-5.999,0.807-7.061c-0.29-0.034-0.598-0.072-0.807-0.098V478.268z"/>
				<path fill="#95A371" d="M681.348,584.888c-4.307-3.767-8.927-7.031-10.526-7.872c-4.565-2.398-8.975-3.595-13.43-4.218v7.515
					c3.103,1.155,6.089,2.782,8.919,4.575H681.348z"/>
				<path fill="#FD9D09" d="M671.344,588.301c3.471,2.476,10.529,11.229,15.031,10.658c7.736-0.982,1.742-8.15-5.028-14.071h-15.037
					C668.05,585.989,669.731,587.15,671.344,588.301z"/>
				<path fill="#93FD25" d="M657.604,471.117c0.214,0.027,0.398,0.06,0.595,0.09C658.995,471.302,659.636,471.37,657.604,471.117z"
					/>
				<path fill="#6FBF75" d="M657.392,471.096c-0.338-0.034-0.297-0.025-0.084,0.003c0.028,0.002,0.056,0.003,0.084,0.005V471.096z"
					/>
				<path fill="#638D35" d="M657.392,471.104c-0.028-0.002-0.056-0.003-0.084-0.005c0.026,0.003,0.053,0.007,0.084,0.011V471.104z"
					/>
				<path fill="#675905" d="M657.392,471.109c0.209,0.027,0.518,0.064,0.807,0.098c-0.197-0.03-0.381-0.063-0.595-0.09
					c-0.071-0.007-0.141-0.008-0.212-0.014V471.109z"/>
				<path fill="#FDA7A5" d="M657.604,471.117c-0.085-0.009-0.152-0.016-0.212-0.022v0.008
					C657.462,471.11,657.533,471.11,657.604,471.117z"/>
				<path fill="#3D7341" d="M634.235,559.515c-0.749,2.474-1.289,5.039-2.019,7.495c-1.642,5.528,0.519,4.133-4.003,6.857
					c-4.944,2.979-10.058-0.423-13.203,6.473c1.181,3.197,33.083-2.416,38.58-1.174c1.285,0.29,2.553,0.682,3.802,1.146v-7.515
					c-5.74-0.803-11.555-0.652-17.871-0.89c7.939-13.286,10.303-29.565,6.291-44.916h-10.679c0.012,0.044,0.025,0.089,0.036,0.133
					C638.248,539.04,637.755,547.885,634.235,559.515z"/>
				<path fill="#D76795" d="M642.472,517.526c-1.445-3.178-9.514-11.938-9.212-15.19c0.202-2.17,6.339-7.605,7.784-9.25
					c3.032-3.451,5.88-8.033,9.435-10.71c0.894-0.672,4.089-2.291,6.913-4.108v-7.159c-0.03-0.004-0.058-0.008-0.084-0.011
					c-8.84-0.676-18.076,9.766-24.586,14.089c-4.742,3.149-10.187,6.591-15.865,7.629c-6.257,1.144-10.866-1.361-16.966-1.738
					c-3.549,10.694,3.748,15.051,12.093,15.785c7.725,0.681,11.564-2.158,16.557,4.675c3.318,4.54,5.196,10.074,6.593,15.453h10.679
					C644.974,523.786,643.877,520.616,642.472,517.526z"/>
				<path fill="#D75723" d="M643.296,812.376c-6.476-4.884-13.823-3.557-21.329-2.649c-5.659,0.684-7.485,2.137-11.742-2.441
					c-2.762-2.971-4.183-8.119-4.902-11.985c-1.638-8.801,2.729-14.403,4.371-22.761c2.397-9.083-10.997-0.636-12.707,2.353
					c-2.357,4.121-2.856,7.73-3.157,12.451c-0.734,11.511-0.213,20.501,7.258,29.124h46.518
					C646.39,815.16,645.143,813.768,643.296,812.376z"/>
				<path fill="#EBFB1B" d="M671.646,832.495c13.73-3.783-6.554-8.52-14.255-10.362v8.74
					C662.696,832.547,667.941,833.516,671.646,832.495z"/>
				<path fill="#AF6D21" d="M647.607,816.467h-46.518c0.119,0.138,0.225,0.276,0.347,0.414c-4.459,1.079-9.442,1.132-14.52,0.583
					v8.367c2.714,0.145,5.479,0.262,8.316,0.384c6.637,0.286,13.874,1.005,20.289-1.12c1.17-0.388,2.061-1.332,3.178-1.777
					c2.57-1.025,4.931-2.619,7.735-3.065c5.794-0.92,8.324,1.092,13.831,3.612c3.953,1.809,10.586,4.945,17.127,7.008v-8.74
					c-1.296-0.31-2.237-0.538-2.598-0.666C651.187,820.193,649.431,818.427,647.607,816.467z"/>
				<path fill="#73E11F" d="M562.795,811.681c-7.022-2.306-12.378-5.258-17.715-10.442c-3.913-3.801-7.43-9.994-13.374-10.737
					c-4.148,13.371,6.774,18.44,15.757,24.493c0.773,0.521,1.548,1.001,2.323,1.472h30.666
					C574.166,815.25,568.009,813.394,562.795,811.681z"/>
				<path fill="#A1D3CF" d="M549.786,816.467c11.776,7.153,23.767,8.65,37.129,9.364v-8.367c-2.149-0.232-4.313-0.581-6.463-0.997
					H549.786z"/>
				<path fill="#0565F5" d="M609.694,772.539C609.146,775.323,610.229,770.509,609.694,772.539L609.694,772.539z"/>
				<path fill="#A3B11B" d="M531.053,851.324c-4.86-2.374-3.703-0.662-8.387,2.107c-1.917,1.134-4.015,2.129-6.228,2.979v13.231
					c0.541-0.211,1.082-0.433,1.622-0.682c1.236-0.57,3.246-1.924,4.521-2.213c1.531-2.926,3.071-3.354,4.619-1.285
					c1.54,1.224,3.058,2.476,4.554,3.754c3.004,1.895,6.128,3.602,9.34,5.146h34.443c-12.834-2.446-25.318-6.844-35.671-15.034
					C537.09,857.131,534.193,852.858,531.053,851.324z"/>
				<path fill="#4B7D49" d="M654.366,856.662c-5.837,5.011-11.874,8.758-19.001,11.708c-6.367,2.635-12.485,4.626-18.586,5.992
					H641.7c2.441-1.454,9.162-5.106,15.692-9.37V853.58C656.199,854.855,655.154,855.985,654.366,856.662z"/>
				<path fill="#D357A9" d="M465.893,857.798c8.106,10.29,20.674,13.643,33.319,14.033c6.019,0.185,11.645-0.018,17.226-2.19V856.41
					c-16.709,6.421-40.194,4.198-45.585-15.26c-2.25-8.117-0.41-16.4,2.281-24.684h-8.451c-0.283,1.383-0.58,2.738-0.907,4.046
					C460.742,832.621,457.752,847.464,465.893,857.798z"/>
				<path fill="#F78187" d="M480.881,788.313c0.027-0.511,0.046-1.021,0.049-1.531c-0.051-0.081-0.102-0.161-0.152-0.242
					C480.577,786.64,480.779,789.356,480.881,788.313z"/>
				<path fill="#B33195" d="M480.778,786.54c0.051,0.081,0.102,0.161,0.152,0.242C480.864,786.589,480.814,786.521,480.778,786.54z"
					/>
				<path fill="#4DFB0D" d="M668.893,846.302c-3.365-1.302-8.055,3.595-11.501,7.278v11.411
					C667.853,858.16,677.82,849.757,668.893,846.302z"/>
				<path fill="#4DB12B" d="M639.17,893.935c-0.934-4.142-0.337-16.44,1.583-18.945c0.067-0.087,0.4-0.304,0.947-0.629h-24.921
					c-9.686,2.169-19.334,2.736-29.864,1.675v9.29c15.148,0.695,30.35-1.088,44.11-4.869c-1.419,11.999-3.62,26.155,6.753,35.194
					c3.29,2.866,13.04,5.86,19.613,5.403v-11.076c-1.081-0.614-2.113-1.184-2.947-1.704
					C647.952,904.227,640.998,902.036,639.17,893.935z"/>
				<path fill="#E3ED99" d="M661.958,919.778c5.608-3.714,0.08-7.16-4.566-9.8v11.076
					C659.234,920.926,660.827,920.527,661.958,919.778z"/>
				<path fill="#B773B3" d="M480.881,788.313c-0.102,1.043-0.304-1.672-0.103-1.773c-0.792-1.259-1.584-2.517-2.377-3.776
					c-9.957,7.749-11.293,21.843-13.718,33.703h8.451C476.208,807.003,480.392,797.537,480.881,788.313z"/>
				<path fill="#23FD09" d="M480.93,786.782c-0.003,0.51-0.022,1.02-0.049,1.531C480.905,788.057,480.925,787.582,480.93,786.782z"
					/>
				<path fill="#73DBA5" d="M582.747,875.546c-2.408-0.332-4.814-0.728-7.209-1.185h-34.443
					c14.058,6.76,29.907,10.235,45.821,10.965v-9.29C585.54,875.898,584.154,875.74,582.747,875.546z"/>
				<path fill="#AD3BC3" d="M912.342,311.539c0.593,4.07,4.999,11.132,9.8,6.492c2.522-2.437,1.719-14.275,1.438-22.617h-9.901
					C912.757,300.889,911.703,307.146,912.342,311.539z"/>
				<path fill="#179577" d="M1118.418,740.419c-9.462-5.771-8.491,7.763-7.025,14.23c0.321,1.416,0.79,2.71,1.344,3.923h20.303
					C1125.204,754.542,1125.579,744.787,1118.418,740.419z"/>
				<path fill="#C5D9A5" d="M1009.775,941.536c8.285-1.449,16.369-3.611,23.868-6.897c1.626-0.712,3.16-1.525,4.652-2.383h-28.52
					V941.536z"/>
				<path fill="#514F5B" d="M1080.251,386.544v24.66h8.212C1083.207,404.229,1081.255,395.547,1080.251,386.544z"/>
				<path fill="#8931BD" d="M1102.373,700.677h-13.478C1089.826,705.12,1098.036,703.325,1102.373,700.677z"/>
				<path fill="#B92D9B" d="M819.777,759.648c4.068,1.349,7.896,2.123,11.808,3.714c2.934,1.193,7.334,5.268,10.733,4.936
					c7.681-0.748,3.224-5.361-0.951-8.354c-0.676-0.485-1.355-0.941-2.038-1.373h-22.691
					C817.674,758.938,818.72,759.297,819.777,759.648z"/>
				<path fill="#41BD13" d="M865.375,270.256c0.744,1.379,2.37,1.216,3.447,2.497v-30.327c-0.513-1.676-1.069-3.306-1.666-4.907
					h-10.098c2.84,6.549,4.618,13.571,5.274,20.111C862.877,263.058,862.983,265.827,865.375,270.256z"/>
				<path fill="#D1D387" d="M984.63,1040.629c-3.429,0.037-17.913-1.615-19.63,3.281c-0.586,1.672-0.405,3.033,0.354,4.135h42.914
					c0.516-0.249,1.016-0.508,1.506-0.773v-15.2c-0.366,0.37-0.735,0.722-1.102,1.053
					C1001.587,1039.522,993.722,1040.531,984.63,1040.629z"/>
				<path fill="#7305EB" d="M919.236,990.151h10.944c-2.071-1.657-4.144-2.9-5.956-2.915
					C920.88,987.208,919.514,988.417,919.236,990.151z"/>
				<path fill="#25B3F5" d="M910.15,967.22c7.03-11.38,7.116-22.665,6.648-34.964h-8.973c1.111,10.17-0.143,21.692-6.286,28.175
					c-8.04,8.485-20.941,4.182-30.982,6.608c-0.636,0.154-1.21,0.339-1.735,0.552v22.56h3.675c1.32-3.849,2.155-7.833,2.39-11.872
					C890.458,981.566,901.047,981.953,910.15,967.22z"/>
				<path fill="#637B03" d="M814.568,212.781c-0.092,0.026-0.18,0.043-0.271,0.07C812.117,213.611,814.505,212.829,814.568,212.781z
					"/>
				<path fill="#071737" d="M868.821,998.38c1.469-2.647,2.705-5.4,3.675-8.229h-3.675V998.38z"/>
				<path fill="#F1A3A1" d="M813.37,263.885c-3.571,0.062-11.964,8.795-15.025,10.966v10.23c4.516-2.522,9.367-4.697,13.229-7.842
					C815.661,273.91,821.418,263.745,813.37,263.885z"/>
				<path fill="#DD93F3" d="M860.652,990.151c-3.088,7.1-8.364,13.858-14.464,18.358c-12.733,9.395-32.138,11.759-47.844,10.751
					v8.621c9.595,0.9,19.549,0.581,31.051-1.129c16.12-2.397,31.305-13.744,39.426-28.374v-8.229H860.652z"/>
				<path fill="#E3439F" d="M953.083,237.519h-13.785v4.724c3.232-1.357,6.568-2.592,9.734-3.595
					C950.362,238.227,951.716,237.855,953.083,237.519z"/>
				<path fill="#13E735" d="M1024.075,295.414h8.229c0.002-0.071,0.01-0.143,0.011-0.213c0.209-12.619-4.242-24.633-11.192-35.037
					c-3.466-5.188-7.267-9.765-11.349-13.743v12.992c4.52,5.979,8.294,12.381,10.949,18.119
					C1023.587,283.72,1024.431,289.597,1024.075,295.414z"/>
				<path fill="#1FE9AD" d="M947.022,266.912c-1.959-1.181-4.787-1.154-7.724-0.963v7.786
					C945.456,273.005,953.318,270.708,947.022,266.912z"/>
				<path fill="#97D195" d="M951.919,1016.555c2.073,0.363,4.155,0.469,6.244,0.321c3.999,0.286,9.942,0.784,13.64-0.963
					c2.737-1.293,10.357-9.005,7.224-11.481c-1.507-1.192-10.667,1.786-12.861,1.77c-3.392-0.024-6.946-0.807-10.244-1.515
					c-6.055-1.299-11.468-3.13-16.624-6.526v46.151c2.694-8.13,2.628-17.114,7.117-24.384
					C946.318,1015.041,948.152,1013.916,951.919,1016.555z"/>
				<path fill="#9FE549" d="M1080.251,811.529c-3.856,0.963-8.402,2.325-10.023,4.937h10.023V811.529z"/>
				<path fill="#0BCF33" d="M939.298,932.256h8.691c-2.924-0.893-5.824-1.94-8.691-3.158V932.256z"/>
				<path fill="#D71921" d="M1017.643,320.448c-0.822-0.624-3.778-2.353-7.869-4.523v24.785c1.987-0.147,4.502-1.113,7.765-3.172
					c2.273,5.68,3.494,10.677,4.3,15.77h9.076c-0.146-2.751-0.454-5.382-1.061-8.208c-0.584-2.721-5.259-13.38-4.533-14.296
					c1.646-2.078,12.727,0.778,15.267,1.295c13.787,2.807,22.09,10.217,26.516,21.21h9.12c-1.685-7.004-4.27-13.602-8.436-18.604
					c-5.096-6.117-11.323-9.027-18.963-10.193c-7.292-1.112-19.553,2.097-20.452-8.499c-0.523-6.168,3.735-13.992,3.932-20.599
					h-8.229C1023.572,303.646,1020.663,311.756,1017.643,320.448z"/>
				<path fill="#BB7365" d="M798.345,529.747v11.441c2.276-4.006,3.948-7.999,4.134-11.747
					C801.203,529.076,799.787,529.242,798.345,529.747z"/>
				<path fill="#CF1F7B" d="M1150.728,755.228c-2.3,1.051-4.85,2.39-7.425,3.344h7.425V755.228z"/>
				<path fill="#AB3B00" d="M991.268,990.151c1.614,1.48,3.133,2.781,4.2,3.749c3.778,3.428,9.578,7.069,14.307,10.85v-10.926
					c-1.571-1.184-3.097-2.411-4.576-3.673H991.268z"/>
				<path fill="#79DF37" d="M768.735,300.34c-1.141,3.541-4.837,7.795-6.74,11.089c-3.75,6.495-8.123,12.836-11.219,19.677
					c-3.052,6.744-4.479,14.815-2.966,22.203h13.146c-5.946-14.56,1.213-25.538,10.107-39.628
					c4.315-6.836,8.541-12.857,13.909-18.267h-16.053C769.271,297.001,769.292,298.61,768.735,300.34z"/>
				<path fill="#57CDDF" d="M1148.246,932.256h-10.432c-2.665,15.706-10.406,30.644-20.792,45.736
					c-3.185,4.627-6.763,8.66-10.649,12.159h12.253c5.468-6.901,9.602-14.591,14.537-21.943
					C1141.244,956.17,1146.528,945.007,1148.246,932.256z"/>
				<path fill="#1DE125" d="M1080.251,1004.709v9.809c2.451-0.673,5.046-1.257,6.988-1.939c13.202-4.64,20.847-9.854,30.02-20.723
					c0.472-0.559,0.915-1.135,1.367-1.706h-12.253C1098.715,997.044,1089.834,1001.813,1080.251,1004.709z"/>
				<path fill="#1F5711" d="M765.984,962.152c0.834,3.526,4.027,12.919,7.784,14.637c7.435,3.4,6.578-3.995,5.106-9.006
					c-3.027-10.306-7.447-20.672-11.556-30.656c-0.669-1.627-1.309-3.25-1.925-4.871h-8.722c2.167,4.104,4.111,8.239,4.458,12.106
					c0.741,8.265-8.811,16.608-11.815,24.143c-2.579,6.468-2.836,14.58-2.697,21.646h9.2c-0.003-0.014-0.007-0.027-0.009-0.04
					C753.483,978.177,757.739,969.748,765.984,962.152z"/>
				<path fill="#B7CB7F" d="M1128.447,483.25c2.034,14.344,1.554,29.477-1.813,43.742h9.068c0.898-4.674,1.573-9.392,1.773-14.252
					c0.66-16.046,0.509-29.909-3.406-43.643h-8.941C1126.635,473.597,1127.748,478.315,1128.447,483.25z"/>
				<path fill="#01D3FD" d="M1101.306,434.465c11.191,9.552,19.292,21.103,23.823,34.633h8.941
					c-1.986-6.967-4.938-13.901-9.25-21.07c-8.158-13.56-19.871-21.783-31.765-31.917c-1.772-1.509-3.275-3.161-4.592-4.908h-8.212
					v6.856C1087.928,419.203,1095.088,429.157,1101.306,434.465z"/>
				<path fill="#25B77F" d="M798.345,218.507v-9.222c-7.628,4.525-17.069,7.247-24.159,12.997
					c-4.471,3.628-8.478,9.692-10.33,15.237h12.229C780.843,227.42,788.982,222.318,798.345,218.507z"/>
				<path fill="#110155" d="M1075.969,418.403c1.443-0.468,2.871-0.554,4.281-0.344v-6.856h-20.083
					c-1.346,3.191-3.331,8.085-3.327,8.953C1056.889,430.58,1070.578,420.154,1075.969,418.403z"/>
				<path fill="#F51593" d="M1068.747,892.782c2.747-5.97,5.632-12.13,8.194-18.42h-8.933c-4.805,13.157-11.476,26.174-18.975,36.29
					c-7.905,10.666-20.67,15.926-33.069,19.551c-2.055,0.601-4.12,1.16-6.189,1.685v0.369h28.52
					C1053.142,923.713,1061.601,908.311,1068.747,892.782z"/>
				<path fill="#7121F9" d="M814.297,212.85c0.217-0.064,0.284-0.079,0.271-0.07c20.697-5.924,35.152,7.821,42.489,24.739h10.098
					c-1.681-4.507-3.72-8.769-6.307-13.024c2.644,0.529,5.312,1.136,7.973,1.828v-8.383c-1.95-0.355-3.9-0.633-5.838-0.801
					c-4.804-0.417-5.696-0.283-9.361-2.555c-2.977-1.846-4.848-4.158-8.167-5.752c-7.52-3.61-15.583-3.663-23.752-4.106
					c-5.8-0.315-14.105-2.043-19.213,1.745c-1.294,1.029-2.691,1.951-4.146,2.814v9.222
					C803.42,216.442,808.85,214.753,814.297,212.85z"/>
				<path fill="#79AFB3" d="M764.505,285.061c1.556,3.935,3.692,7.099,4.414,10.353h16.053c2.57-2.591,5.399-5.043,8.63-7.374
					c1.492-1.076,3.096-2.039,4.742-2.958v-10.23c-0.01,0.007-0.022,0.017-0.031,0.024c-7.398,5.203-14.564,10.506-21.33,16.533
					c-7.792-15.16-8.025-35.615-1.994-51.341c0.34-0.886,0.71-1.729,1.096-2.548h-12.229c-0.055,0.165-0.115,0.332-0.167,0.497
					C759.603,251.093,759.354,272.038,764.505,285.061z"/>
				<path fill="#BFA787" d="M1127.837,640.06c-2.828-11.034-5.83-22.043-11.525-31.995c-3.395-5.934-11.45-19.069-19.088-20.258
					c-16.987-2.645,1.214,11.051,4.096,14.403c6.981,8.117,11.52,18.695,14.641,28.839c1.175,3.819,1.917,7.76,2.266,11.734h24.173
					c0.906-1.118,1.783-2.252,2.648-3.351c2.826-3.591,3.784-6.216,5.678-6.502v-48.041h-6.459c1.402,4.454,2.257,9.063,2.556,13.34
					C1147.886,613.359,1142.216,632.709,1127.837,640.06z"/>
				<path fill="#7BA9FD" d="M1102.18,722.25c-2.694,2.725-1.674,9.148-3.188,12.835c-1.898,4.622-5.466,8.901-8.224,13.024
					c-2.336,3.493-4.544,7.058-6.944,10.463h9.154c6.393-8.777,12.799-17.843,21.322-25.207c5.969-5.157,9.765-2.764,17.466-3.665
					c6.297-0.736,12.645-4.757,18.963-6.409v-10.368c-7.518,4.097-16.739,8.712-24.809,9.374
					C1119.853,722.794,1107.229,717.142,1102.18,722.25z"/>
				<path fill="#E71339" d="M761.945,417.31c3.455,3.814,2.578,3.778,1.214,10.232c-1.093,5.174-2.154,10.208-3.622,15.296
					c-0.966,3.353-2.159,6.7-2.635,10.168c-0.712,5.187-1.118,10.602-1.332,16.092h8.516c0.17-2.653,0.361-5.211,0.547-7.635
					c0.766-9.983,4.529-17.302,7.469-26.483c1.733-5.413,2.07-12.896,1.928-18.531c-0.043-1.687-0.421-3.455-0.931-5.246h-17.355
					c0.019,0.063,0.032,0.135,0.052,0.195C757.26,415.742,759.336,414.429,761.945,417.31z"/>
				<path fill="#17B917" d="M1008.311,932.256h1.463v-0.369C1009.287,932.011,1008.799,932.137,1008.311,932.256z"/>
				<path fill="#E75D6D" d="M844.722,368.445c7.995,1.312,16.01,4.813,24.1,7.55v-8.219c-7.489-2.355-14.918-4.428-22.817-5.794
					c-10.082-1.743-20.146-2.843-30.165-0.341c-6.042,1.51-11.849,3.537-17.495,5.961v7.706c4.729-1.797,9.068-3.181,12.081-4.112
					C821.572,367.751,833.174,366.55,844.722,368.445z"/>
				<path fill="#E3615F" d="M868.821,283.781c-3.478,6.267-12.382,10.093-18.829,9.694c-1.758-0.109-16.574-5.226-15.887,1.939
					h34.716V283.781z"/>
				<path fill="#1F7517" d="M846.071,298.814c7.187,1.212,15.499,2.656,22.75,0.782v-4.182h-34.716c0.001,0.016,0,0.029,0.002,0.045
					C834.386,298.124,843.806,298.432,846.071,298.814z"/>
				<path fill="#2D0D79" d="M877.003,295.414c0.109-0.093,0.219-0.181,0.327-0.277c7.235-6.49,9.18-24.303,2.554-32.23
					c-1.882-2.253-6.292-2.925-7.728-4.944c-2.049-2.879-1.648-9.581-2.57-12.914c-0.245-0.887-0.501-1.76-0.765-2.623v30.327
					c0.222,0.265,0.423,0.586,0.585,1c1.468,3.745,1.015,7.144-0.585,10.028v11.633H877.003z"/>
				<path fill="#21AFBB" d="M868.821,299.596c2.953-0.763,5.729-2.078,8.182-4.182h-8.182V299.596z"/>
				<path fill="#FFB741" d="M912.264,255.859c5.996,11.318,3.767,21.823,2.32,33.696c-0.211,1.731-0.548,3.738-0.905,5.859h9.901
					c-0.102-3.035-0.136-5.611,0.085-7.099c0.499-3.348,0.296-7.2,1.093-10.417c1.753-7.079,3.507-4.123,10.228-3.917
					c1.102,0.034,2.645-0.05,4.312-0.247v-7.786c-3.346,0.218-6.834,0.65-9.341-0.237c-5.126-1.813-2.613-0.393-5.147-4.123
					c-1.126-1.656-3.634-7.319-4.157-9.311c4.832-1.445,7.552-4.736,12.076-7.019c2.071-1.046,4.296-2.06,6.57-3.015v-4.724h-10.453
					c-4.66,2.89-9.71,5.855-13.416,5.179c-2.582-0.471-5.136-2.667-7.643-5.179h-12.518
					C902.211,242.135,908.153,248.098,912.264,255.859z"/>
				<path fill="#79312F" d="M895.268,237.519h12.518c-2.906-2.911-5.75-6.247-8.5-7.832c-9.127-5.26-19.812-9.806-30.464-11.746
					v8.383C878.119,228.743,887.345,232.252,895.268,237.519z"/>
				<path fill="#DFA783" d="M769.682,816.467h-9.479c-2.511,7.301-4.504,14.212-6.398,22.042
					c-3.162,13.07-5.144,21.718-5.399,35.718c-0.001,0.045-0.002,0.09-0.003,0.135h7.232c0.21-4.406,0.615-8.87,1.261-13.42
					C758.971,846.328,763.599,829.989,769.682,816.467z"/>
				<path fill="#A72FE7" d="M1080.251,774.457c4.598-4.836,8.66-10.302,12.727-15.885h-9.154c-1.136,1.612-2.315,3.187-3.573,4.701
					V774.457z"/>
				<path fill="#7B3151" d="M1070.228,816.467c-0.266,0.428-0.475,0.88-0.566,1.38c-0.225,1.233,4.215,10.104,4.628,12.793
					c1.088,7.08,1.332,13.798,0.056,20.859c-1.318,7.293-3.505,15.102-6.339,22.863h8.933c1.19-2.922,2.308-5.872,3.31-8.845v-49.05
					H1070.228z"/>
				<path fill="#73D16D" d="M1074.059,769.497c-12.098,9.875-26.576,8.08-39.29,14.951c-14.91,8.058,7.554,7.591,13.052,6.919
					c14.487-1.772,24.297-8.355,32.43-16.91v-11.184C1078.393,765.509,1076.368,767.612,1074.059,769.497z"/>
				<path fill="#011197" d="M877.777,1136.567c-2.976,1.108-5.961,2.163-8.956,3.129v11.07c9.422-3.385,19.093-8.316,26.975-12.461
					c9.291-4.886,13.635-9.437,19.225-17.266c3.543-4.961,8.319-8.945,12.844-13.077c0.626-0.572,1.283-1.266,1.961-2.022h-12.374
					C905.118,1117.36,894.558,1130.318,877.777,1136.567z"/>
				<path fill="#6597ED" d="M938.443,1097.217c0.274-0.156,0.56-0.296,0.855-0.426v-11.632c-9.903-4.001-19.023-9.534-26.676-16.64
					c10.966-1.761,17.824-8.771,23.56-17.551c0.619-0.948,1.142-1.928,1.618-2.923h-11.716c-0.687,0.769-1.391,1.49-2.094,2.127
					c-3.036,2.749-15.815,12.01-19.025,11.577c-1.287-0.174-8.074-6.915-8.786-7.989c-1.612-2.431-2.263-3.897-2.234-5.716h-9.25
					c-1.658,3.92-3.909,7.559-6.771,10.769c-2.72,3.052-5.805,5.484-9.103,7.569v12.982c7.709-4.144,14.672-10.181,18.808-16.429
					c6.932,7.024,17.36,10.86,25.193,17.138c7.107,5.697,13.646,8.73,21.272,13.151c-6.217,3.598-11.578,8.028-16.642,12.715h12.374
					C932.549,1102.904,935.615,1098.821,938.443,1097.217z"/>
				<path fill="#1FAF59" d="M1150.728,773.13c4.21-0.863,8.008-2.723,9.534-7.223c0.509-1.501,0.592-4.619,0.006-7.336h-9.54V773.13
					z"/>
				<path fill="#09C941" d="M1160.267,758.572c-0.44-2.042-1.257-3.859-2.56-4.591c-1.638-0.92-4.114-0.063-6.979,1.247v3.344
					H1160.267z"/>
				<path fill="#2D157B" d="M1119.462,777.753c-1.666,5.798-4.271,11.327-8.047,16.057c-6.772,8.482-16.455,13.118-26.516,16.509
					c-1.114,0.376-2.801,0.749-4.648,1.21v4.937h18.618c11.357-5.404,21.369-14.983,26.258-25.713
					c1.666-3.657,1.823-11.637,3.883-14.311c2.564-3.329,9.078-2.166,14.272-2.492c2.375-0.149,4.98-0.315,7.446-0.82v-14.558
					h-7.425c-2.953,1.094-5.937,1.677-8.605,0.719c-0.592-0.212-1.142-0.453-1.658-0.719h-20.303
					C1115.878,765.45,1121.792,769.644,1119.462,777.753z"/>
				<path fill="#35812F" d="M1080.251,865.516c4.887-14.492,6.995-29.526,0.889-44.447c5.93-0.209,12-1.877,17.729-4.603h-18.618
					V865.516z"/>
				<path fill="#EDA705" d="M795.615,1116.354c-4.549,3.965-4.669,10.696-4.413,16.219c-11.093-8.141-20.62-15.107-25.395-26.633
					h-10.995c1.446,6.323,4.066,12.355,8.294,17.907c4.169,5.477,9.7,9.32,15.597,12.61c3.329,1.857,6.446,3.558,10.072,4.743
					c1.433,0.468,5.862-1.058,6.311-0.837c1.129,0.557,2.199,1.464,3.259,2.52v-21.903
					C797.631,1119.34,796.797,1117.761,795.615,1116.354z"/>
				<path fill="#53FB2B" d="M755.799,501.067c0.212,6.92,2.444,16.863,6.409,25.926h11.021
					c-10.452-15.852-10.336-39.258-9.142-57.895h-8.516C755.154,479.832,755.486,490.859,755.799,501.067z"/>
				<path fill="#35F955" d="M1106.725,681.664c-4.1,5.013-16.108,10.365-17.667,16.349c-0.278,1.068-0.313,1.945-0.162,2.664h13.478
					c0.263-0.161,0.516-0.324,0.749-0.489c5.868-4.19,10.106-11.786,14.084-17.611c2.737-4.008,4.993-6.755,6.915-11.486
					c1.594-3.922,2.32-15.906,4.154-18.369c0.778-1.044,6.9-2.805,8.555-4.137c2.061-1.657,3.869-3.702,5.57-5.803h-24.173
					C1119.438,656.54,1115.694,670.7,1106.725,681.664z"/>
				<path fill="#95BDB5" d="M778.477,798.807c1.971-2.902,13.986-12.332,13.982-14.975c-0.005-3.754-8.229-3.396-10.301-2.921
					c-7.203,1.653-8.177,8.284-12.726,13.123c-2.334-7.313-5.816-14.206-5.156-21.98c0.312-3.673,1.534-8.658,3.469-13.482h-10.51
					c-3.678,9.713-5.255,20.088-3.167,28.567c0.926,3.76,3.158,7.335,5.403,10.432c4.751,6.554,5.017,6.986,2.266,14.542
					c-0.537,1.475-1.043,2.919-1.536,4.353h9.479c0.454-1.01,0.914-2.007,1.384-2.984
					C773.502,808.421,775.307,803.477,778.477,798.807z"/>
				<path fill="#33B5F3" d="M939.298,232.157c-0.859,0.3-1.72,0.606-2.583,0.937c-2.185,0.837-4.952,2.616-7.87,4.426h10.453
					V232.157z"/>
				<path fill="#67AD97" d="M1005.262,1049.356c1.047-0.41,2.049-0.847,3.006-1.311h-42.914
					C970.328,1055.271,1000.36,1051.273,1005.262,1049.356z"/>
				<path fill="#B19B95" d="M818.867,1141.556c-7.038-2.49-13.036-5.951-16.954-12.439c-1.54-2.548-2.389-5.426-3.568-8.137v21.903
					c2.546,2.536,5.035,5.954,8.16,7.613c2.741,1.455,5.416,2.481,8.399,3.246c12.52,3.213,28.82,2.651,41.561,0.438
					c3.945-0.685,8.125-1.895,12.356-3.415v-11.07C852.485,1144.964,835.858,1147.568,818.867,1141.556z"/>
				<path fill="#7DB9C7" d="M762.971,1094.959c-1.959-15.534,4.634-30.05,5.47-45.431c10.208,6.693,18.699,13.668,29.904,17.805
					v-10.436c-5.253-3.017-10.558-5.592-15.617-8.852h-23.99c1.12,5.196,2.111,10.72,1.359,14.812
					c-0.177,0.966-3.63,3.254-4.024,4.37c-0.973,2.761-0.317,4.318-0.684,6.928c-0.335,2.374-0.995,4.684-1.291,7.044
					c-1.063,8.467-1.094,16.833,0.715,24.741h10.995C764.459,1102.686,763.489,1099.069,762.971,1094.959z"/>
				<path fill="#55D5A3" d="M782.409,548.831c-2.298,6.31-6.307,12.754-8.984,19.046c-2.408,5.657-4.596,11.354-6.971,17.01h8.58
					c3.184-7.866,6.528-15.71,10.21-23.241c2.911-5.956,8.994-13.228,13.101-20.458v-11.441c-4.607,1.613-9.488,6.79-10.959,10.043
					c-6.105-3.141-10.703-7.559-14.157-12.797h-11.021C766.778,537.436,773.652,546.709,782.409,548.831z"/>
				<path fill="#FDEB03" d="M953.083,237.519c9.09-2.236,18.871-2.515,27.958,0h17.579c-17.017-10.892-37.536-12.977-59.323-5.363
					v5.363H953.083z"/>
				<path fill="#716563" d="M1137.01,557.381c-6.654-5.214-7.492-3.955-5.399-12.617c1.442-5.969,2.95-11.833,4.091-17.771h-9.068
					c-0.919,3.892-2.04,7.724-3.399,11.453c-3.554,9.752-6.944,18.998-14.318,26.491c-1.857,1.887-9.246,6.233-3.173,9.175
					c3.151,1.527,8.352-2.753,10.712-4.803c2.297-1.994,5.439-8.457,8.272-8.823c2.708-0.35,10.114,7.501,11.516,9.138
					c3.558,4.158,6.236,9.584,8.024,15.264h6.459v-8.948c-0.075-0.174-0.147-0.344-0.224-0.52
					C1147.226,567.862,1143.62,562.56,1137.01,557.381z"/>
				<path fill="#0D1F61" d="M1150.728,632.929c1.146-0.173,2.633,0.508,5.085,2.353c2.456,1.848,4.882,4.438,7.166,7.501h11.047
					c-3.712-6.807-8.391-12.338-13.303-18.658c-1.838-1.108-3.692-2.189-5.561-3.244c0.237-2.96,0.436-5.923,0.593-8.889
					c0.241-4.492,0.418-8.993,0.454-13.491c0.041-5.135-0.709-9.362-2.04-13.613h-3.439V632.929z"/>
				<path fill="#AB5765" d="M1154.167,584.888c-0.9-2.875-2.066-5.764-3.439-8.948v8.948H1154.167z"/>
				<path fill="#EBA359" d="M1153.165,711.584c-0.787,0.435-1.604,0.884-2.437,1.338v10.368c1.458-0.381,2.914-0.636,4.367-0.696
					c5.286-0.216,4.661,0.961,8.417,6.569c2.182,3.257,4.647,6.522,6.362,10.072c2.765,5.725,4.841,13.007,6.295,19.336h9.963
					c-3.229-15.592-11.779-30.339-21.63-42.266c8.493-4.669,14.651-9.4,18.233-15.628h-15.201
					C1163.239,705.165,1158.008,708.908,1153.165,711.584z"/>
				<path fill="#BF3937" d="M1176.403,684.57c-0.933,5.942-4.392,11.429-8.869,16.107h15.201c3.387-5.888,4.473-13.114,3.03-22.905
					c-1.536-10.419-5.864-22.878-10.265-32.111c-0.471-0.988-0.965-1.945-1.474-2.879h-11.047
					C1171.64,654.402,1178.23,672.936,1176.403,684.57z"/>
				<path fill="#85F7A1" d="M1176.298,759.126c4.432,19.617-2.72,42.279-16.973,57.34h9.801c1.161-1.266,2.309-2.548,3.447-3.853
					c8.729-10.014,12.882-20.88,14.51-34.047c0.831-6.717,0.408-13.43-0.951-19.994h-9.963
					C1176.21,758.755,1176.257,758.945,1176.298,759.126z"/>
				<path fill="#4199E7" d="M1139.714,829.975c-7.939,3.13-9.694,2.796-8.923,11.665c0.791,9.091,4.397,15.174,1.995,24.667
					c-0.713,2.821-1.828,5.53-3.262,8.055h11.649c1.087-3.736,3.277-7.528,3.785-11.401c0.799-6.086-3.579-15.319-1.734-20.471
					c0.929-2.596,4.135-5.8,7.503-8.755v-9.78C1147.304,826.389,1143.625,828.434,1139.714,829.975z"/>
				<path fill="#473799" d="M1150.728,823.954v9.78c3.049-2.676,6.23-5.148,7.979-6.771c3.643-3.38,7.085-6.862,10.419-10.497
					h-9.801C1156.694,819.247,1153.815,821.759,1150.728,823.954z"/>
				<path fill="#119543" d="M802.967,1059.708c-1.531-0.997-3.074-1.922-4.622-2.811v10.436c0.745,0.275,1.502,0.538,2.272,0.787
					C811.485,1071.633,810.848,1064.844,802.967,1059.708z"/>
				<path fill="#F5D745" d="M770.441,382.009c-5.972,4.392-11.148,8.434-13.339,15.746c-0.954,3.182-2.31,10.197-1.357,13.449
					h17.355c-1.36-4.783-3.683-9.743-3.261-13.855c1.003-9.764,16.102-17.328,28.505-22.041v-7.706
					c-2.668,1.146-5.304,2.373-7.906,3.69c-13.619,6.897-18.544,0.24-25.854-11.112c-1.538-2.389-2.729-4.67-3.628-6.872h-13.146
					c0.495,2.418,1.302,4.763,2.475,6.964C753.51,366.331,763.548,380.065,770.441,382.009z"/>
				<path fill="#0119A3" d="M850.633,1084.798c5.871-0.173,12.251-2.241,18.189-5.433v-12.982
					c-5.634,3.562-11.895,6.104-18.053,8.951C842.522,1079.146,837.906,1085.173,850.633,1084.798z"/>
				<path fill="#49BBC1" d="M761.53,1019.008c13.269,4.683,24.757,7.743,36.814,8.874v-8.621c-0.91-0.058-1.813-0.123-2.696-0.204
					c-15.38-1.399-36.533-12.124-39.832-28.906h-9.2c0.013,0.655,0.028,1.304,0.046,1.939c0.466,16.25,7.717,30.925,10.192,46.871
					c0.402,2.588,1.168,5.771,1.883,9.085h23.99c-2.605-1.679-5.146-3.535-7.576-5.74
					C765.949,1033.957,762.777,1031.916,761.53,1019.008z"/>
				<path fill="#A9C35B" d="M891.991,379.208c0.479-7.063-15.694-9.033-20.108-10.457c-1.023-0.33-2.042-0.655-3.062-0.975v8.219
					C876.462,378.579,884.169,380.482,891.991,379.208z"/>
				<path fill="#A11BDB" d="M1071.165,388.808c0.38,8.197,2.116,10.605-3.608,14.735c-4.128,2.978-4.234,0.464-6.36,5.267
					c-0.211,0.476-0.585,1.343-1.028,2.394h20.083v-24.66c-0.302-2.708-0.522-5.443-0.721-8.169
					c-0.553-7.569-1.273-16.615-3.306-25.067h-9.12c1.935,4.806,3.132,10.294,3.717,16.387
					C1071.428,376.026,1070.87,382.458,1071.165,388.808z"/>
				<path fill="#D73581" d="M762.971,642.782h-7.036c-0.084,10.067,0.086,20.148,0.038,30.127
					c-0.042,8.902-1.189,18.646-0.352,27.768h10.179c-1.509-5.402-2.34-11.291-2.344-17.758
					C763.449,670.446,762.738,656.591,762.971,642.782z"/>
				<path fill="#D96700" d="M1028.761,374.264c4.433-1.577,2.27-12.432,2.268-16.186c-0.001-1.666-0.033-3.236-0.114-4.769h-9.076
					c0.683,4.318,1.069,8.706,1.534,13.641C1023.674,370.136,1023.503,376.135,1028.761,374.264z"/>
				<path fill="#B7DB73" d="M967.6,305.375c0.234,4.425,12.726,5.146,15.31,6.11c2.985,1.112,6.495,3.21,9.399,4.692
					c6.451,3.292,6.244,3.335,8.067,9.751c2.193,7.715,3.222,15.239,9.399,14.782v-24.785
					C995.421,308.313,967.066,295.263,967.6,305.375z"/>
				<path fill="#A55DB9" d="M1148.318,913.769c-0.721-6.358-2.49-12.413-3.367-18.798c-0.853-6.207-4.702-13.036-4.369-17.56
					c0.074-1.013,0.294-2.03,0.591-3.05h-11.649c-3.831,6.745-10.014,12.132-17.461,14.491c-8.643,2.738-18.093-0.014-26.516,3.025
					c-0.24,13.428,42.033,2.678,47.103-0.585c6.108,14.526,7.361,28.005,5.162,40.963h10.432
					C1149.022,926.494,1149.071,920.408,1148.318,913.769z"/>
				<path fill="#41D3C7" d="M939.298,998.161c-0.102-0.067-0.206-0.125-0.308-0.194c-2.23-1.5-5.518-5.183-8.811-7.816h-10.944
					c-0.474,2.958,2.226,7.444,3.729,9.935c7.575,12.563,13.782,23.719,8.639,38.956c-1.05,3.111-3.174,6.378-5.519,9.003H937.8
					c0.584-1.218,1.077-2.464,1.498-3.734V998.161z"/>
				<path fill="#67F96F" d="M939.298,1085.159v11.632c8.699-3.819,26.058,3.461,36.27,4.695c11.895,1.438,23.254,1.081,34.207-1.767
					v-10.467C987.378,1095.345,961.386,1094.084,939.298,1085.159z"/>
				<path fill="#9799DF" d="M798.345,739.62v10.971c5.974,3.175,11.958,5.742,18.293,7.981h22.691
					c-4.771-3.016-9.753-4.851-15.286-6.935C814.938,748.206,806.207,744.295,798.345,739.62z"/>
				<path fill="#2725DD" d="M895.022,1015.096c-7.242,4.946-6.382,20.107-8.559,27.92c-0.479,1.722-1.078,3.397-1.768,5.029h9.25
					c0.022-1.409,0.452-3.031,1.159-5.477C897.642,1033.784,901.617,1023.432,895.022,1015.096z"/>
				<path fill="#834B73" d="M987.29,239.742c8.299,3.701,16.131,11.267,22.485,19.671V246.42c-3.515-3.425-7.241-6.397-11.154-8.901
					h-17.579C983.167,238.108,985.258,238.836,987.29,239.742z"/>
				<path fill="#AFCD5F" d="M1075.246,1016.305c1.339-0.708,3.131-1.272,5.005-1.787v-9.809c-13.775,4.162-28.99,4.47-44.083,1.659
					c-9.412-1.753-18.452-6.56-26.393-12.544v10.926c2.295,1.835,4.341,3.702,5.775,5.595c4.873,6.434-0.23,16.134-5.775,21.728
					v15.2c12.915-6.973,17.085-19.174,16.036-34.1c13.221,3.31,22.987,3.848,36.598,3.77c-3.24,10.902-4.619,21.029-8.1,31.103
					h10.75C1068.665,1037.989,1066.965,1020.683,1075.246,1016.305z"/>
				<path fill="#95D313" d="M1049.319,1059.36c-7.075,12.76-14.808,20.545-28.372,26.122c-3.591,1.476-7.332,2.724-11.172,3.769
					v10.467c5.712-1.486,11.316-3.637,16.823-6.592c7.668-4.115,15.502-6.373,21.588-12.953
					c7.992-8.641,11.132-19.957,16.106-30.279c0.281-0.583,0.534-1.202,0.767-1.85h-10.75
					C1053.006,1051.812,1051.42,1055.571,1049.319,1059.36z"/>
				<path fill="#0975D9" d="M759.436,605.121c-1.087,4.225-2.062,7.994-2.449,12.4c-0.735,8.362-0.982,16.807-1.052,25.261h7.036
					c0.269-15.959,1.8-31.858,7.142-45.496c1.611-4.111,3.244-8.258,4.921-12.399h-8.58c-0.479,1.141-0.953,2.282-1.452,3.418
					C762.553,593.886,760.937,599.295,759.436,605.121z"/>
				<path fill="#81CB5D" d="M861.801,987.208c-0.338,0.984-0.723,1.966-1.148,2.943h8.169v-22.56
					C861.341,970.618,864.487,979.393,861.801,987.208z"/>
				<path fill="#250727" d="M778.474,743.809c4.889-2.718,2.576-1.709,7.69,0.197c3.556,1.326,7.04,3.773,10.354,5.606
					c0.609,0.337,1.218,0.656,1.827,0.98V739.62c-15.542-9.241-27.667-21.486-32.544-38.943h-10.179
					c0.451,4.92,1.47,9.662,3.572,13.986c3.798,7.813,8.367,13.037,14.02,19.143c-6.401,5.819-12.261,14.954-15.976,24.765h10.51
					C770.261,752.304,773.979,746.307,778.474,743.809z"/>
				<path fill="#D38161" d="M939.298,929.098c-1.491-0.634-2.975-1.308-4.449-2.034c-11.584-5.709-18.526-13.002-27.682-21.723
					c-2.853-2.719-8.904-9.426-10.676-1.73c-0.952,4.14,7.215,12.364,8.617,16.291c1.233,3.452,2.215,7.766,2.716,12.355h8.973
					c-0.075-1.964-0.162-3.951-0.24-5.971c3.253,2.221,6.352,4.192,9.379,5.971h13.361V929.098z"/>
				<path fill="#1159DF" d="M983.083,979.617c0.798,3.333,4.711,7.349,8.184,10.533h13.931c-2.349-2.006-4.582-4.088-6.661-6.197
					C995.642,981.014,979.582,964.983,983.083,979.617z"/>
				<path fill="#970377" d="M975.365,944.45c11.199-0.281,22.996-0.917,34.41-2.914v-9.28h-1.463
					c-20.143,4.913-40.806,5.959-60.322,0h-8.691v6.625C950.065,943.153,961.034,944.809,975.365,944.45z"/>
				<path fill="#378959" d="M755.634,874.361h-7.232c-0.292,15.364-2.64,31.793,2.665,46.546c1.288,3.581,3.547,7.45,5.606,11.348
					h8.722C758.158,913.202,754.677,894.441,755.634,874.361z"/>
				<path fill="#FB63C5" d="M925.937,932.256c4.561,2.68,8.949,4.875,13.361,6.625v-6.625H925.937z"/>
				<path fill="#6DF100" d="M929.159,394.218c-5.349,4.228-21.273,12.411-28.183,11.971c-3.86-0.246-14.884-14.469-18.506-11.741
					c-3.826,2.882,2.501,11.163,7.005,16.756h34.062c4.132-1.093,8.135-2.843,12.018-5.811c1.548-1.183,2.7-2.4,3.741-3.534v-48.55
					h-6.718c1.18,2.124,2.199,4.517,2.972,7.334C938.761,372.343,939.568,385.989,929.159,394.218z"/>
				<path fill="#0D4FA3" d="M939.298,344.051c-6.665-8.188-16.477-15.738-23.954-12.959c1.712-0.637,1.354,2.577,0,0
					c4.977,9.476,12.455,13.614,17.236,22.217h6.718V344.051z"/>
				<path fill="#E14B6B" d="M901.331,435.005c11.821,10.743,3.341-17.543,1.952-21.505c7.106-0.503,13.838-0.6,20.255-2.296h-34.062
					c1.826,2.267,3.354,4.095,3.781,4.938C896.035,421.621,896.709,430.805,901.331,435.005z"/>
				<path fill="#155DF7" d="M945.854,397.131c4.385-1.066,10.702,1.224,15.509,0.685c7.261-0.815,14.257-2.399,16.306-10.297
					c2.287-8.819-1.765-5.914-8.33-3.997c-7.208,2.104-14.505,2.597-22.006,3.232c1.645-8.794,1.559-21.82-0.877-30.483
					c-0.252-0.898-0.64-1.896-1.14-2.961h-6.018v48.55C941.266,399.714,942.827,397.867,945.854,397.131z"/>
				<path fill="#61270F" d="M945.315,353.309c-1.316-2.805-3.43-6.078-6.018-9.258v9.258H945.315z"/>
				<path fill="#B5C5ED" d="M915.344,331.091C916.697,333.668,917.056,330.454,915.344,331.091L915.344,331.091z"/>
				<path fill="#058779" d="M939.298,524.884v2.109h1.303C940.221,526.268,939.786,525.565,939.298,524.884z"/>
				<path fill="#B7A50F" d="M924.133,561.269c-4.617,7.009-9.025,10.168-4.359,18.419c1.054,1.864,2.098,3.569,3.057,5.199h14.503
					c-2.014-5.471-5.567-10.397-10.628-14.084c4.444-4.394,9.37-11.347,12.594-18.897v-24.914h-9.105
					c0.783,3.661,1.115,7.494,1.3,11.504C931.868,546.617,928.559,554.552,924.133,561.269z"/>
				<path fill="#E38953" d="M940.601,526.993h-1.303v24.914C942.917,543.433,944.382,534.209,940.601,526.993z"/>
				<path fill="#CFAB2F" d="M878.187,659.476c1.636-5.722,1.895-11.078,1.94-16.694h-8.629c-0.005,5.098-0.771,10.173-0.371,15.462
					c-0.787-0.022-1.547-0.015-2.305-0.005v8.939c5.805-1.189,12.348,0.076,20.059,3.824c11.4,5.541,21.068,17.215,26.323,29.675
					h9.771C918.281,680.036,899.898,663.31,878.187,659.476z"/>
				<path fill="#C13953" d="M994.761,492.768c-9.38,6.815-13.12,14.189-25.334,18.199c-11.871,3.897-21.16,3.818-30.129-0.091
					v13.711C953.772,523.987,1017.443,521.723,994.761,492.768z"/>
				<path fill="#13778F" d="M806.363,423.286c-5.797,7.748,10.842,4.695,14.189,4.521c15.398-0.801,35.494,1.154,48.27,10.562
					v-9.276c-9.949-5.45-21.343-7.879-33.151-7.879c6.317-0.658,5.941-5.258,3.828-10.011H827.06
					c0.874,3.292,1.21,6.799,2.725,9.813C824.975,420.814,810.185,418.178,806.363,423.286z"/>
				<path fill="#65D12D" d="M784.609,700.677h-6.706C778.796,703.161,781.545,702.617,784.609,700.677z"/>
				<path fill="#B3A3BB" d="M869.661,438.971c9.983,7.805,16.884,18.824,22.819,30.128h9.23
					c-5.407-10.102-10.742-20.271-18.377-28.632c-4.315-4.725-9.212-8.471-14.511-11.374v9.276
					C869.098,438.573,869.391,438.76,869.661,438.971z"/>
				<path fill="#D973C3" d="M778.744,692.209c-1.236,4.239-1.393,6.932-0.841,8.469h6.706c2.667-1.688,5.57-4.43,7.695-7.161
					c1.984-2.55,3.955-4.886,6.041-6.862V673.58C789.443,675.505,782.047,680.875,778.744,692.209z"/>
				<path fill="#F341BB" d="M1051.466,696.221c-5.047-7.083-23.221-2.563-29.764-0.578c-3.926,1.192-7.512,2.901-10.737,5.034
					h20.772C1038.367,699.402,1045.191,699.247,1051.466,696.221z"/>
				<path fill="#91870D" d="M838.921,679.343c-11.379-4.043-27.583-8.572-40.576-5.763v13.074
					c5.653-5.353,12.159-8.039,22.114-5.005c5.809,1.771,13.739,10.801,19.468,10.547c5.047-0.224,8.558-7.376,11.068-11.064
					c5.391-7.921,11.115-12.579,17.826-13.954v-8.939C854.151,658.427,844.753,664.534,838.921,679.343z"/>
				<path fill="#E30351" d="M906.711,765.122c3.041,4.955,12.085-0.386,14.029-3.287c0.656-0.98,1.083-2.095,1.406-3.263H908.62
					C907.09,761.464,906.057,764.057,906.711,765.122z"/>
				<path fill="#9B176B" d="M1009.775,716.148c3.198-5.417,7.291-9.844,13.319-12.765c2.799-1.357,5.702-2.141,8.644-2.707h-20.772
					c-0.398,0.264-0.804,0.519-1.191,0.796V716.148z"/>
				<path fill="#F51F43" d="M859.343,605.284c-2.157-0.699-5.074-2.533-7.326-0.788c-4.393,3.401,2.462,8.166,5.324,10.773
					c5.021,4.577,8.921,8.552,11.481,14.322v-18.155C866.109,608.726,862.917,606.443,859.343,605.284z"/>
				<path fill="#7D1BC1" d="M899.723,483.512c5.871,11.773,14.095,18.762,22.73,28.131c4.351,4.721,6.561,9.839,7.74,15.35h9.105
					v-2.109c-0.069-0.096-0.127-0.195-0.198-0.29c0.063-0.003,0.133-0.005,0.198-0.008v-13.711
					c-5.245-2.286-10.381-5.88-15.859-10.762c-9.546-8.508-15.683-19.72-21.729-31.015h-9.23
					C895.015,473.927,897.377,478.807,899.723,483.512z"/>
				<path fill="#B3BB61" d="M819.633,395.247c0.002,0.148-0.002,0.284,0.008,0.445c0.133,0.587,0.304,1.153,0.501,1.704
					C820.049,396.667,819.679,394.808,819.633,395.247z"/>
				<path fill="#092399" d="M819.642,395.691c-0.01-0.161-0.006-0.297-0.008-0.445C819.626,395.322,819.627,395.463,819.642,395.691
					z"/>
				<path fill="#510753" d="M925.03,606.183c-2.538,5.719-5.991,9.653-11.457,12.741c-6.581,3.719-14.62,6-22.07,6.667
					c-2.894,0.259-8.472,1.222-11.201,0.074c-3.543-1.491-4.869-5.83-7.222-9.149c-1.239-1.748-2.667-3.487-4.259-5.08v18.155
					c0.641,1.444,1.201,2.996,1.669,4.703c0.786,2.862,1.01,5.678,1.007,8.487h8.629c0.024-2.948-0.01-5.966,0.064-9.149
					c19.392,3.241,43.383-1.951,54.197-19.972c3.217-5.36,4.843-11.33,4.91-17.219v-0.148c0.028-3.908-0.629-7.777-1.965-11.406
					H922.83C926.717,591.495,929.181,596.831,925.03,606.183z"/>
				<path fill="#CF3B6B" d="M834.358,402.528c-1.045-1.533-14.867-16.163-14.725-7.281c0.045-0.439,0.415,1.421,0.51,2.149
					c1.467,4.098,4.512,7.328,6.135,11.371c0.317,0.789,0.562,1.608,0.782,2.437h12.438
					C838.069,407.99,835.846,404.707,834.358,402.528z"/>
				<path fill="#F7CBD9" d="M939.298,596.294v0.148C939.298,596.393,939.298,596.343,939.298,596.294z"/>
				<path fill="#51AF39" d="M820.143,397.396c-0.198-0.551-0.369-1.117-0.501-1.704C820.131,397.853,820.214,397.94,820.143,397.396
					z"/>
				<path fill="#6785FB" d="M994.193,725.388c-14.034-5.975-30.067-13.196-45.693-13.341c-3.208-0.03-6.23,0.449-9.201,1.133v7.29
					c5.617-0.751,11.609-0.986,14.297-0.805c9.741,0.657,21.189,4.664,29.536,9.579c5.257,3.097,10.922,11.28,16.865,7.028
					c3.911-2.797,5.36-11.263,7.282-15.368c0.775-1.657,1.603-3.243,2.496-4.756v-14.675
					C1001.967,707.061,996.523,715.34,994.193,725.388z"/>
				<path fill="#D919DD" d="M924.975,700.677h-9.771c1.748,4.143,3.008,8.374,3.681,12.494c1.698,10.395-0.582,24.637-4.043,34.528
					c-0.553,1.58-3.94,6.559-6.222,10.872h13.525c0.62-2.244,0.83-4.693,1.365-6.832c0.915-3.652,2-6.938,2.618-10.724
					c0.645-3.951-0.924-14.338,1.34-16.927c1.513-1.73,6.503-2.906,11.829-3.619v-7.29c-3.861,0.888-7.638,2.121-11.629,3.034
					C927.537,710.889,926.593,705.67,924.975,700.677z"/>
				<path fill="#E7D781" d="M998.368,439.363c-0.859,8.889-9.339,17.771-9.344,26.26c-0.001,1.307,0.319,2.452,0.878,3.475h19.872
					V467.6c-0.123-0.169-0.255-0.33-0.377-0.5c-2.909-4.074-4.764-7.288-4.736-11.66c0.021-3.283,1.837-7.191,2.111-10.636
					c0.732-9.182,0.274-22.306-2.45-33.6h-10.595c0.655,2.871,1.553,5.556,2.11,7.442
					C997.728,425.046,999.017,432.641,998.368,439.363z"/>
				<path fill="#C1AF01" d="M1080.251,539.352c0.126-0.095,0.249-0.196,0.377-0.286c3.326-2.342,7.991-3.968,11.866-4.87
					c4.225-0.983,18.265,0.594,18.682-6.627c-0.682-0.207-1.358-0.399-2.029-0.577h-23.37c-1.895,0.587-3.735,1.324-5.527,2.199
					V539.352z"/>
				<path fill="#0F8367" d="M1009.775,481.838c14.497,11.186,26.649,27.363,35.009,45.155h9.64
					c-1.386-3.206-2.891-6.318-4.512-9.219c-3.408-6.098-11.727-11.797-13.781-18.318c-1.709-5.428-1.137-3.09,3.21-8.351
					c2.445-2.958,4.096-6.332,5.937-9.673c1.844-3.348,4.458-6.662,5.484-10.4c0.196-0.712,0.343-1.354,0.458-1.934h-12.645
					c-2.436,6.332-5.982,12.651-10.298,19.782c-5.507-6.794-12.041-12.849-17.373-19.782h-1.129V481.838z"/>
				<path fill="#B5D381" d="M1010.904,469.098c-0.382-0.496-0.761-0.993-1.129-1.499v1.499H1010.904z"/>
				<path fill="#D50B4D" d="M1060.791,545.689c-1.552-6.14-3.732-12.599-6.368-18.696h-9.64
					c7.642,16.265,12.12,33.871,12.324,50.229c0.032,2.576-0.07,5.131-0.278,7.666h8.425c0.34-6.912,0.11-13.538-0.526-19.21
					c-0.311-2.774-2.347-7.793-1.462-10.593c0.972-3.077,8.905-8.005,11.485-10.434c1.803-1.698,3.509-3.792,5.499-5.299v-10.16
					C1073.119,532.676,1066.752,538.362,1060.791,545.689z"/>
				<path fill="#61D913" d="M1028.324,642.782h11.213c1.99-2.796,4.139-5.495,5.991-6.049c2.495-0.748,9.879,3.394,14.093,6.049
					h15.748c-6.462-6.174-16.177-11.657-24.552-12.732c9.595-10.757,13.631-28.768,14.438-45.163h-8.425
					C1055.009,607.098,1044.205,627.536,1028.324,642.782z"/>
				<path fill="#0FF5DB" d="M998.454,662.542c-2.95,1.246-14.685,5.48-10.147,10.089c3.749,3.808,16.256-2.003,19.693-3.58
					c0.595-0.273,1.186-0.557,1.774-0.847v-11.365C1006.126,658.981,1002.348,660.898,998.454,662.542z"/>
				<path fill="#D12365" d="M1032.542,418.833c4.125,4.512,6.007,9.277,7.496,15.228c3.544,14.17,2.544,24.622-1.462,35.037h12.645
					c1.102-5.553-0.797-5.425,7.108-6.073c8.52-0.698,14.576-0.75,21.923,3.344v-9.518c-1.518-0.344-2.832-0.629-3.761-0.874
					c-8.576-2.259-15.643-2.681-24.543-2.426c-0.628-8.541,1.233-20.638-3.458-28.356c-2.904-4.778-7.907-10.328-13.494-13.992
					h-10.274C1026.527,414.185,1030.19,416.262,1032.542,418.833z"/>
				<path fill="#A9C7D7" d="M1009.775,656.839v11.365c9.519-4.699,18.135-11.617,25.32-19.338c1.176-1.263,2.751-3.708,4.442-6.083
					h-11.213C1022.715,648.167,1016.477,652.903,1009.775,656.839z"/>
				<path fill="#419F5F" d="M1085.778,526.993h23.37C1100.435,524.682,1092.741,524.836,1085.778,526.993z"/>
				<path fill="#5F3D1B" d="M998.909,397.165c-0.18-0.295-0.36-0.589-0.547-0.872C996.103,397.008,1001.33,401.275,998.909,397.165z
					"/>
				<path fill="#AD2381" d="M998.362,396.293c0.187,0.283,0.367,0.578,0.547,0.872C998.757,396.907,998.578,396.62,998.362,396.293z
					"/>
				<path fill="#45EDB1" d="M989.902,469.098c2.93,5.36,12.506,7.322,17.813,11.183c0.693,0.504,1.376,1.03,2.059,1.557v-12.74
					H989.902z"/>
				<path fill="#494F79" d="M998.909,397.165c2.421,4.11-2.806-0.157-0.547-0.872c-6.301,1.996-6.011,8.867-4.634,14.911h10.595
					C1003.051,405.926,1001.283,401.052,998.909,397.165z"/>
				<path fill="#F9D3B5" d="M1023.641,407.178c-0.063,1.542,0.369,2.851,1.08,4.025h10.274
					C1031.319,408.793,1027.392,407.196,1023.641,407.178z"/>
				<path fill="#1BF925" d="M1083.261,667.417c4.595-1.835,0.344-12.342-3.01-18.344v18.081
					C1081.299,667.658,1082.31,667.797,1083.261,667.417z"/>
				<path fill="#0F5D07" d="M1097.102,469.098h-12.626C1088.714,472.007,1095.131,475.895,1097.102,469.098z"/>
				<path fill="#E535C9" d="M1062.062,644.395c4.266,3.038,11.897,19.73,18.189,22.759v-18.081c-0.961-1.72-1.849-3.073-2.433-3.742
					c-0.747-0.856-1.57-1.708-2.449-2.548h-15.748C1060.67,643.444,1061.531,644.017,1062.062,644.395z"/>
				<path fill="#D9D171" d="M1084.476,469.098h12.626c0.144-0.498,0.269-1.044,0.363-1.662c0.94-6.182-10.292-9.015-17.213-10.586
					v9.518c0.532,0.297,1.07,0.611,1.617,0.952C1082.545,467.743,1083.446,468.392,1084.476,469.098z"/>
				<path fill="#4FDF07" d="M869.431,506.864c8.344-0.735,15.641-5.092,12.092-15.785c-4.635,0.286-8.411,1.797-12.702,2.007v13.818
					C869.026,506.89,869.222,506.883,869.431,506.864z"/>
				<path fill="#6359C1" d="M823.812,471.117c-0.214,0.027-0.398,0.06-0.595,0.09c0.332-0.039,0.688-0.082,0.891-0.109
					C824.009,471.106,823.91,471.107,823.812,471.117z"/>
				<path fill="#4317E7" d="M823.812,471.117c0.098-0.01,0.197-0.012,0.295-0.019C824.358,471.065,824.376,471.058,823.812,471.117z
					"/>
				<path fill="#C369C3" d="M852.874,511.54c4.857-6.648,8.633-4.151,15.947-4.636v-13.818c-1.356,0.066-2.762,0.006-4.264-0.269
					c-5.678-1.038-11.123-4.479-15.865-7.629c-6.509-4.324-15.745-14.766-24.585-14.089c-0.203,0.027-0.559,0.07-0.891,0.109
					c-11.446,1.759,5.465,9.472,7.72,11.169c3.555,2.677,6.403,7.258,9.434,10.71c1.445,1.644,7.582,7.079,7.784,9.25
					c0.303,3.252-7.767,12.012-9.212,15.19c-1.404,3.09-2.502,6.26-3.34,9.467h10.679
					C847.679,521.614,849.556,516.079,852.874,511.54z"/>
				<path fill="#9FA10B" d="M841.894,571.908c-11.218,0.422-20.854-0.381-31.301,5.108c-1.599,0.84-6.219,4.104-10.526,7.872h15.037
					c3.971-2.514,8.244-4.71,12.721-5.721c5.498-1.242,37.399,4.371,38.58,1.174c-3.146-6.896-8.259-3.494-13.203-6.473
					c-4.522-2.724-2.36-1.33-4.002-6.857c-0.729-2.455-1.27-5.02-2.019-7.495c-3.52-11.63-4.013-20.474-0.935-32.388
					c0.011-0.044,0.024-0.089,0.036-0.133h-10.679C831.591,542.343,833.954,558.622,841.894,571.908z"/>
				<path fill="#79F31D" d="M798.345,598.117c4.151-2.175,9.023-7.889,11.726-9.817c1.613-1.151,3.294-2.312,5.033-3.413h-15.037
					c-0.583,0.51-1.159,1.027-1.722,1.55V598.117z"/>
				<path fill="#EFFB97" d="M823.216,471.207c0.197-0.03,0.381-0.063,0.595-0.09C821.779,471.37,822.42,471.302,823.216,471.207z"/>
				<path fill="#DB0DEF" d="M795.039,598.958c0.998,0.127,2.124-0.222,3.305-0.841v-11.68
					C792.368,591.995,787.969,598.061,795.039,598.958z"/>
				<path fill="#BD7301" d="M833.809,816.467c-1.824,1.96-3.581,3.726-7.187,5.001c-2.507,0.886-32.892,6.608-16.853,11.028
					c8.274,2.28,24.221-5.353,31.381-8.63c5.507-2.52,8.037-4.532,13.831-3.612c2.804,0.445,5.165,2.04,7.735,3.065
					c1.117,0.445,2.008,1.389,3.178,1.777c0.958,0.318,1.937,0.565,2.927,0.767v-9.394H833.809z"/>
				<path fill="#9F094D" d="M886.184,826.215c16.806-0.725,31.277-1.143,45.444-9.748h-30.669
					c-7.231,1.399-14.634,1.949-20.98,0.413c0.123-0.137,0.228-0.276,0.347-0.413h-11.505v9.394
					C874.461,827.008,880.538,826.458,886.184,826.215z"/>
				<path fill="#C3C76F" d="M949.71,790.502c-4.429,0.554-7.51,4.132-10.412,7.493v13.504
					C946.619,806.65,953.049,801.267,949.71,790.502z"/>
				<path fill="#6D2B2F" d="M887.585,787.342c-0.301-4.72-0.8-8.33-3.157-12.451c-1.709-2.989-15.104-11.435-12.707-2.353
					c1.642,8.357,6.008,13.96,4.371,22.761c-0.719,3.867-2.14,9.015-4.902,11.985c-0.875,0.941-1.645,1.616-2.369,2.107v7.074
					h11.505C887.798,807.844,888.32,798.853,887.585,787.342z"/>
				<path fill="#116B57" d="M871.722,772.539C871.186,770.509,872.27,775.323,871.722,772.539L871.722,772.539z"/>
				<path fill="#69DB57" d="M868.821,809.392c-2.798,1.895-4.878,0.878-9.373,0.334c-7.507-0.908-14.853-2.235-21.329,2.649
					c-1.847,1.393-3.094,2.785-4.31,4.091h35.013V809.392z"/>
				<path fill="#B7A7DB" d="M939.298,811.498v-13.504c-0.993,1.15-1.965,2.275-2.962,3.244c-5.337,5.184-10.693,8.136-17.715,10.442
					c-5.215,1.713-11.373,3.57-17.661,4.786h30.669c0.775-0.471,1.55-0.951,2.324-1.472
					C935.703,813.815,937.526,812.672,939.298,811.498z"/>
				<path fill="#D99D83" d="M905.878,874.361h33.42v-13.339C929.41,868.135,917.796,872.09,905.878,874.361z"/>
				<path fill="#BD7DEF" d="M954.214,865.461c1.548-2.07,3.088-1.642,4.619,1.285c1.274,0.29,3.284,1.644,4.521,2.213
					c6.116,2.82,12.246,3.075,18.849,2.872c9.955-0.307,19.852-2.467,27.572-8.386v-19.93c-7.496,19.644-35.243,19.25-51.026,9.917
					c-4.683-2.77-3.526-4.482-8.387-2.107c-3.14,1.534-6.036,5.807-8.814,8.004c-0.739,0.585-1.49,1.148-2.25,1.695v13.339h1.022
					c3.212-1.545,6.336-3.251,9.341-5.146C951.156,867.937,952.675,866.686,954.214,865.461z"/>
				<path fill="#D70063" d="M1003.014,782.763c-0.792,1.259-1.584,2.518-2.376,3.776c0.201,0.1-0.001,2.817-0.103,1.773
					c0.489,9.225,4.672,18.69,7.746,28.154h1.493v-25.489C1008.095,787.841,1005.925,785.029,1003.014,782.763z"/>
				<path fill="#334B95" d="M1009.775,816.467h-1.493c0.542,1.668,1.047,3.336,1.493,5.003V816.467z"/>
				<path fill="#2709DF" d="M1009.775,821.47c1.769,6.61,2.584,13.198,0.788,19.681c-0.228,0.822-0.498,1.603-0.788,2.363v19.93
					c2.086-1.599,4.022-3.457,5.747-5.646c8.141-10.334,5.152-25.178,2.118-37.285c-0.328-1.309-0.625-2.663-0.907-4.046h-6.957
					V821.47z"/>
				<path fill="#31172D" d="M1000.638,786.54c-0.051,0.081-0.102,0.161-0.152,0.242c0.004,0.509,0.022,1.02,0.05,1.531
					C1000.637,789.356,1000.839,786.64,1000.638,786.54z"/>
				<path fill="#F733F1" d="M1000.535,788.312c-0.027-0.511-0.046-1.021-0.05-1.531
					C1000.491,787.582,1000.51,788.057,1000.535,788.312z"/>
				<path fill="#1DB709" d="M1000.485,786.782c0.051-0.081,0.102-0.161,0.152-0.242
					C1000.601,786.521,1000.552,786.589,1000.485,786.782z"/>
				<path fill="#BF87A3" d="M905.878,874.361c-2.395,0.457-4.801,0.853-7.209,1.185c-10.633,1.466-20.285,1.346-29.847-0.338v8.98
					c23.487,3.149,49.001,0.681,70.476-9.341v-0.486H905.878z"/>
				<path fill="#172913" d="M864.635,874.361h-24.92c0.546,0.326,0.88,0.542,0.947,0.629c1.919,2.505,2.517,14.803,1.583,18.945
					c-1.827,8.101-8.782,10.292-15.274,14.339c-4.42,2.755-14.426,6.927-7.514,11.504c5.167,3.421,19.968-0.458,24.18-4.127
					c10.374-9.039,8.172-23.194,6.753-35.194c5.917,1.625,12.1,2.882,18.432,3.73v-8.98
					C867.425,874.963,866.03,874.674,864.635,874.361z"/>
				<path fill="#C99165" d="M846.05,868.369c-7.127-2.95-13.164-6.696-19.001-11.708c-3.065-2.63-9.998-12.112-14.527-10.359
					c-14.5,5.613,20.842,24.276,27.193,28.059h24.92C858.534,872.995,852.417,871.004,846.05,868.369z"/>
				<path fill="#35F5EB" d="M1016.732,816.467c-1.716-8.392-2.892-17.899-6.957-25.489v25.489H1016.732z"/>
				<path fill="#CFC99D" d="M939.298,874.361v0.486c0.342-0.16,0.682-0.322,1.022-0.486H939.298z"/>
			</g>
		</g>
	</g>
</g>
</svg>
