<?xml version="1.0" encoding="UTF-8" standalone="no"?>
<svg
   xmlns:dc="http://purl.org/dc/elements/1.1/"
   xmlns:cc="http://creativecommons.org/ns#"
   xmlns:rdf="http://www.w3.org/1999/02/22-rdf-syntax-ns#"
   xmlns:svg="http://www.w3.org/2000/svg"
   xmlns="http://www.w3.org/2000/svg"
   xmlns:sodipodi="http://sodipodi.sourceforge.net/DTD/sodipodi-0.dtd"
   xmlns:inkscape="http://www.inkscape.org/namespaces/inkscape"
   inkscape:version="1.0.1 (3bc2e813f5, 2020-09-07)"
   sodipodi:docname="netowork.svg"
   id="svg5913"
   version="1.1"
   viewBox="0 0 8625.1885 8864.9004"
   xml:space="preserve"
   style="clip-rule:evenodd;fill-rule:evenodd;image-rendering:optimizeQuality;shape-rendering:geometricPrecision;text-rendering:geometricPrecision"
   width="8625.1885"
   height="8864.9004"><sodipodi:namedview
   inkscape:current-layer="svg5913"
   inkscape:window-maximized="1"
   inkscape:window-y="0"
   inkscape:window-x="0"
   inkscape:cy="4296.5393"
   inkscape:cx="1977.0284"
   inkscape:zoom="0.052556928"
   showgrid="false"
   id="namedview5915"
   inkscape:window-height="900"
   inkscape:window-width="1440"
   inkscape:pageshadow="2"
   inkscape:pageopacity="0"
   guidetolerance="10"
   gridtolerance="10"
   objecttolerance="10"
   borderopacity="1"
   bordercolor="#666666"
   pagecolor="#ffffff"
   inkscape:document-rotation="0" />
 <defs
   id="defs5906">
  <style
   id="style5904"
   type="text/css">
    .fil0 {fill:black}
  </style>
 </defs>
 <g
   transform="translate(1821.1212,-92.476551)"
   id="Layer_x0020_1">
  
 </g>
<metadata
   id="metadata5911"><rdf:RDF><cc:Work><dc:format>image/svg+xml</dc:format><dc:type
         rdf:resource="http://purl.org/dc/dcmitype/StillImage" /><cc:license
         rdf:resource="http://creativecommons.org/licenses/publicdomain/" /><dc:publisher><cc:Agent
           rdf:about="http://openclipart.org/"><dc:title>Openclipart</dc:title></cc:Agent></dc:publisher><dc:title /></cc:Work><cc:License
       rdf:about="http://creativecommons.org/licenses/publicdomain/"><cc:permits
         rdf:resource="http://creativecommons.org/ns#Reproduction" /><cc:permits
         rdf:resource="http://creativecommons.org/ns#Distribution" /><cc:permits
         rdf:resource="http://creativecommons.org/ns#DerivativeWorks" /></cc:License></rdf:RDF></metadata><g
   transform="translate(0,3135.7822)"
   style="clip-rule:evenodd;fill-rule:evenodd;image-rendering:optimizeQuality;shape-rendering:geometricPrecision;text-rendering:geometricPrecision"
   id="Layer_x0020_1-2"><path
     class="fil0"
     d="M 1714,2044 C 1714,1454 1330,976 857,976 384,976 0,1454 0,2044 c 0,92 384,167 857,167 473,0 857,-75 857,-167 z M 857,0 c 258,0 467,209 467,467 0,258 -209,467 -467,467 C 599,934 390,725 390,467 390,209 599,0 857,0 Z"
     id="path5908-0" /></g><g
   transform="translate(6911.1884,3135.7822)"
   style="clip-rule:evenodd;fill-rule:evenodd;image-rendering:optimizeQuality;shape-rendering:geometricPrecision;text-rendering:geometricPrecision"
   id="Layer_x0020_1-23"><path
     class="fil0"
     d="M 1714,2044 C 1714,1454 1330,976 857,976 384,976 0,1454 0,2044 c 0,92 384,167 857,167 473,0 857,-75 857,-167 z M 857,0 c 258,0 467,209 467,467 0,258 -209,467 -467,467 C 599,934 390,725 390,467 390,209 599,0 857,0 Z"
     id="path5908-7" /></g><g
   transform="translate(1396.0625,-1158.2224)"
   id="g6538"><path
     transform="translate(425.40739,1158.2224)"
     style="clip-rule:evenodd;fill-rule:evenodd;image-rendering:optimizeQuality;shape-rendering:geometricPrecision;text-rendering:geometricPrecision"
     class="fil0"
     d="M 1714,2044 C 1714,1454 1330,976 857,976 384,976 0,1454 0,2044 c 0,92 384,167 857,167 473,0 857,-75 857,-167 z M 857,0 c 258,0 467,209 467,467 0,258 -209,467 -467,467 C 599,934 390,725 390,467 390,209 599,0 857,0 Z"
     id="path5908" /><g
     id="Layer_x0020_1-7"
     style="clip-rule:evenodd;fill-rule:evenodd;image-rendering:optimizeQuality;shape-rendering:geometricPrecision;text-rendering:geometricPrecision"
     transform="translate(3876.755,1158.2224)"><path
       id="path5908-9"
       d="M 1714,2044 C 1714,1454 1330,976 857,976 384,976 0,1454 0,2044 c 0,92 384,167 857,167 473,0 857,-75 857,-167 z M 857,0 c 258,0 467,209 467,467 0,258 -209,467 -467,467 C 599,934 390,725 390,467 390,209 599,0 857,0 Z"
       class="fil0" /></g><g
     id="Layer_x0020_1-5"
     style="clip-rule:evenodd;fill-rule:evenodd;image-rendering:optimizeQuality;shape-rendering:geometricPrecision;text-rendering:geometricPrecision"
     transform="translate(425.40739,7812.1226)"><path
       id="path5908-92"
       d="M 1714,2044 C 1714,1454 1330,976 857,976 384,976 0,1454 0,2044 c 0,92 384,167 857,167 473,0 857,-75 857,-167 z M 857,0 c 258,0 467,209 467,467 0,258 -209,467 -467,467 C 599,934 390,725 390,467 390,209 599,0 857,0 Z"
       class="fil0" /></g><g
     id="Layer_x0020_1-28"
     style="clip-rule:evenodd;fill-rule:evenodd;image-rendering:optimizeQuality;shape-rendering:geometricPrecision;text-rendering:geometricPrecision"
     transform="translate(3876.755,7812.1226)"><path
       id="path5908-97"
       d="M 1714,2044 C 1714,1454 1330,976 857,976 384,976 0,1454 0,2044 c 0,92 384,167 857,167 473,0 857,-75 857,-167 z M 857,0 c 258,0 467,209 467,467 0,258 -209,467 -467,467 C 599,934 390,725 390,467 390,209 599,0 857,0 Z"
       class="fil0" /></g></g><path
   d="m 5382.7288,6143.0615 -1966.9201,6.0421 -988.6927,-1700.3818 978.2274,-1706.4239 1966.9202,-6.0421 988.6927,1700.3818 z"
   inkscape:randomized="0"
   inkscape:rounded="0"
   inkscape:flatsided="true"
   sodipodi:arg2="1.5677244"
   sodipodi:arg1="1.0441257"
   sodipodi:r2="1703.4108"
   sodipodi:r1="1966.9294"
   sodipodi:cy="4442.6795"
   sodipodi:cx="4394.0361"
   sodipodi:sides="6"
   id="path5967"
   style="fill:none;stroke:#000000;stroke-width:50;stroke-linecap:round;stroke-miterlimit:4;stroke-dasharray:none"
   sodipodi:type="star" /><path
   id="path6542"
   d="m 2427.1159,4448.7215 3933.8403,-12.0842"
   style="fill:none;stroke:#000000;stroke-width:50;stroke-linecap:butt;stroke-linejoin:miter;stroke-miterlimit:4;stroke-dasharray:none;stroke-opacity:1" /><path
   id="path6544"
   d="M 5372.2635,2736.2555 3415.8086,6149.1033"
   style="fill:none;stroke:#000000;stroke-width:50;stroke-linecap:butt;stroke-linejoin:miter;stroke-miterlimit:4;stroke-dasharray:none;stroke-opacity:1" /><path
   id="path6546"
   d="M 3405.3434,2742.2976 5382.7288,6143.0612"
   style="fill:none;stroke:#000000;stroke-width:50;stroke-linecap:butt;stroke-linejoin:miter;stroke-miterlimit:4;stroke-dasharray:none;stroke-opacity:1" /><path
   id="path6669"
   d="M 3405.3434,2742.2976 6360.9562,4436.6373"
   style="fill:none;stroke:#000000;stroke-width:50;stroke-linecap:butt;stroke-linejoin:miter;stroke-miterlimit:4;stroke-dasharray:none;stroke-opacity:1" /><path
   id="path6671"
   d="M 5372.2635,2736.2555 2427.1159,4448.7215"
   style="fill:none;stroke:#000000;stroke-width:50;stroke-linecap:butt;stroke-linejoin:miter;stroke-miterlimit:4;stroke-dasharray:none;stroke-opacity:1" /><path
   id="path6673"
   d="M 3415.8086,6149.1033 3405.3434,2742.2976"
   style="fill:none;stroke:#000000;stroke-width:50;stroke-linecap:butt;stroke-linejoin:miter;stroke-miterlimit:4;stroke-dasharray:none;stroke-opacity:1" /><path
   id="path6677"
   d="M 6360.9562,4436.6373 3415.8086,6149.1033"
   style="fill:none;stroke:#000000;stroke-width:50;stroke-linecap:butt;stroke-linejoin:miter;stroke-miterlimit:4;stroke-dasharray:none;stroke-opacity:1" /><path
   id="path6679"
   d="M 5382.7288,6143.0612 2427.1159,4448.7215"
   style="fill:none;stroke:#000000;stroke-width:50;stroke-linecap:butt;stroke-linejoin:miter;stroke-miterlimit:4;stroke-dasharray:none;stroke-opacity:1" /><path
   id="path6681"
   d="M 5382.7288,6143.0612 5372.2635,2736.2555"
   style="fill:none;stroke:#000000;stroke-width:50;stroke-linecap:butt;stroke-linejoin:miter;stroke-miterlimit:4;stroke-dasharray:none;stroke-opacity:1" /></svg>
